<svg width="23" height="24" viewBox="0 0 23 24" fill="none" xmlns="http://www.w3.org/2000/svg">
<path d="M0.443632 18.7256L0.0121746 21.7422C-0.0144898 21.9294 0.00278423 22.1203 0.0626296 22.2997C0.122475 22.4791 0.22325 22.6421 0.35698 22.7758C0.490711 22.9096 0.653728 23.0103 0.833134 23.0702C1.01254 23.13 1.20341 23.1473 1.39064 23.1206L4.40719 22.6892C4.86424 22.6246 6.00992 19.5483 6.00992 19.5483C6.00992 19.5483 6.5852 20.0419 6.82043 20.1163C7.32258 20.2747 7.81132 19.7823 7.97586 19.2826L8.44753 17.1229C8.44753 17.1229 9.15079 17.4788 9.40552 17.5312C9.72972 17.5982 10.0442 17.3983 10.2672 17.1741C10.4012 17.0405 10.5018 16.8773 10.5609 16.6975L10.8851 14.6853C10.8851 14.6853 11.7078 14.9132 11.9894 14.9461C12.3099 14.9827 12.6219 14.8193 12.8511 14.589L14.2381 13.2032C15.4122 13.5837 16.6685 13.6327 17.8686 13.345C19.0688 13.0573 20.1663 12.4439 21.0402 11.5724C22.2952 10.3142 23 8.60963 23 6.83251C23 5.05539 22.2952 3.35081 21.0402 2.09257C19.782 0.837584 18.0774 0.132813 16.3003 0.132812C14.5232 0.132813 12.8186 0.837584 11.5604 2.09257C10.6887 2.96636 10.0752 4.06385 9.78741 5.26408C9.49967 6.46431 9.54887 7.72068 9.9296 8.89473L0.787335 18.0358C0.600728 18.2222 0.480051 18.4644 0.443632 18.7256ZM18.8123 4.32055C19.4772 4.98744 19.8506 5.89077 19.8506 6.83251C19.8506 7.77425 19.4772 8.67758 18.8123 9.34447L13.7883 4.32055C14.4552 3.65562 15.3586 3.28223 16.3003 3.28223C17.242 3.28223 18.1454 3.65562 18.8123 4.32055Z" fill="#252525"/>
</svg>
