<svg width="34" height="37" viewBox="0 0 34 37" fill="none" xmlns="http://www.w3.org/2000/svg">
<path d="M13.0768 0C11.6896 0 10.3591 0.556886 9.37813 1.54815C8.39717 2.53941 7.84607 3.88386 7.84607 5.28571V11.1185C8.70098 10.874 9.57655 10.7103 10.4615 10.6296V5.28571C10.4615 4.58478 10.737 3.91256 11.2275 3.41693C11.718 2.9213 12.3832 2.64286 13.0768 2.64286H20.923V9.25C20.923 10.3014 21.3363 11.3097 22.072 12.0532C22.8078 12.7966 23.8056 13.2143 24.8461 13.2143H31.3845V31.7143C31.3845 32.4152 31.109 33.0874 30.6185 33.5831C30.128 34.0787 29.4628 34.3571 28.7691 34.3571H22.8662C22.045 35.3614 21.0956 36.2494 20.0416 37H28.7691C30.1564 37 31.4869 36.4431 32.4679 35.4518C33.4488 34.4606 33.9999 33.1161 33.9999 31.7143V11.6656C33.999 10.6145 33.5851 9.60688 32.8491 8.86414L25.2279 1.16021C24.4925 0.417523 23.4953 0.000224329 22.4556 0H13.0768ZM30.8431 10.5714H24.8461C24.4992 10.5714 24.1666 10.4322 23.9214 10.1844C23.6762 9.93657 23.5384 9.60046 23.5384 9.25V3.18993L30.8431 10.5714Z" fill="#9A9A9A"/>
<path d="M23.5385 25.1072C23.5385 28.2613 22.2985 31.2863 20.0913 33.5167C17.8842 35.747 14.8906 37 11.7692 37C8.64784 37 5.65429 35.747 3.44713 33.5167C1.23997 31.2863 0 28.2613 0 25.1072C0 21.953 1.23997 18.928 3.44713 16.6976C5.65429 14.4673 8.64784 13.2143 11.7692 13.2143C14.8906 13.2143 17.8842 14.4673 20.0913 16.6976C22.2985 18.928 23.5385 21.953 23.5385 25.1072ZM13.0769 19.8214C13.0769 19.471 12.9391 19.1349 12.6939 18.887C12.4487 18.6392 12.1161 18.5 11.7692 18.5C11.4224 18.5 11.0898 18.6392 10.8446 18.887C10.5993 19.1349 10.4615 19.471 10.4615 19.8214V23.7857H6.53846C6.19164 23.7857 5.85902 23.9249 5.61378 24.1728C5.36854 24.4206 5.23077 24.7567 5.23077 25.1072C5.23077 25.4576 5.36854 25.7937 5.61378 26.0415C5.85902 26.2894 6.19164 26.4286 6.53846 26.4286H10.4615V30.3929C10.4615 30.7433 10.5993 31.0794 10.8446 31.3273C11.0898 31.5751 11.4224 31.7143 11.7692 31.7143C12.1161 31.7143 12.4487 31.5751 12.6939 31.3273C12.9391 31.0794 13.0769 30.7433 13.0769 30.3929V26.4286H17C17.3468 26.4286 17.6794 26.2894 17.9247 26.0415C18.1699 25.7937 18.3077 25.4576 18.3077 25.1072C18.3077 24.7567 18.1699 24.4206 17.9247 24.1728C17.6794 23.9249 17.3468 23.7857 17 23.7857H13.0769V19.8214Z" fill="#9A9A9A"/>
</svg>
