<svg width="241" height="181" viewBox="0 0 241 181" fill="none" xmlns="http://www.w3.org/2000/svg">
<path d="M190.379 116.141C161.993 116.141 139.758 111.007 139.758 104.452C139.758 100.522 147.637 97.0154 161.374 94.8318C161.423 94.8238 161.473 94.8255 161.522 94.8369C161.57 94.8482 161.616 94.8691 161.656 94.8981C161.697 94.9272 161.731 94.9639 161.757 95.0062C161.783 95.0485 161.8 95.0956 161.808 95.1446C161.816 95.1937 161.814 95.2438 161.803 95.2921C161.791 95.3404 161.77 95.386 161.74 95.4261C161.711 95.4662 161.674 95.5002 161.632 95.526C161.589 95.5519 161.542 95.5691 161.493 95.5766C148.552 97.6337 140.514 101.034 140.514 104.452C140.514 110.379 163.349 115.387 190.379 115.387C217.409 115.387 240.244 110.379 240.244 104.452C240.244 101.02 232.154 97.611 219.131 95.5553C219.032 95.5394 218.944 95.4851 218.885 95.4043C218.827 95.3234 218.802 95.2226 218.818 95.124C218.834 95.0254 218.888 94.937 218.969 94.8782C219.049 94.8194 219.15 94.795 219.249 94.8103C233.072 96.9923 241 100.507 241 104.452C241 111.007 218.765 116.141 190.379 116.141Z" fill="#9A9A9A"/>
<path d="M165.265 118.343C167.834 122.733 171.512 126.373 175.932 128.898C180.352 131.423 185.359 132.746 190.452 132.733C195.545 132.72 200.545 131.373 204.952 128.825C209.359 126.277 213.019 122.619 215.565 118.216C198.814 119.179 182.022 119.221 165.265 118.343Z" fill="#F68F1F"/>
<path d="M218.35 110.154C219.588 105.821 219.798 101.26 218.965 96.8311C218.131 92.4026 216.277 88.2285 213.548 84.6392C210.819 81.0498 207.29 78.1438 203.241 76.151C199.193 74.1583 194.735 73.1335 190.221 73.1579C185.707 73.1822 181.26 74.255 177.233 76.2913C173.206 78.3276 169.709 81.2716 167.019 84.8902C164.329 88.5087 162.52 92.7026 161.734 97.1399C160.949 101.577 161.209 106.136 162.494 110.456C181.047 112.767 199.822 112.666 218.35 110.154Z" fill="#F68F1F"/>
<path d="M45.127 3.39289C45.1268 2.77933 44.96 2.17728 44.6443 1.65081C44.3287 1.12434 43.8759 0.693153 43.3342 0.403115C42.7926 0.113077 42.1823 -0.0249542 41.5683 0.0037049C40.9543 0.032364 40.3595 0.226642 39.8473 0.565869C39.3351 0.905096 38.9247 1.37658 38.6596 1.93016C38.3945 2.48373 38.2847 3.09869 38.3419 3.70959C38.3991 4.32049 38.6212 4.90449 38.9844 5.39944C39.3477 5.89439 39.8386 6.28178 40.4049 6.52039V24.1326H43.0493V6.52039C43.6653 6.26072 44.1909 5.82555 44.5604 5.26928C44.93 4.71302 45.127 4.06035 45.127 3.39289Z" fill="#CCCCCC"/>
<path d="M64.2055 87.8599H64.2044C63.188 87.8589 62.1823 87.6533 61.2472 87.2555C60.3122 86.8577 59.4671 86.2759 58.7624 85.5448C58.0577 84.8138 57.5078 83.9484 57.1456 83.0004C56.7835 82.0525 56.6164 81.0414 56.6545 80.0275C56.8059 76.0293 60.2739 72.7765 64.3853 72.7765H85.1416L102.221 65.2291C102.68 65.0274 103.199 65.0153 103.666 65.1953C104.133 65.3754 104.51 65.733 104.713 66.1897L109.301 76.5341C109.503 76.9914 109.515 77.5101 109.335 77.9763C109.154 78.4426 108.796 78.8184 108.338 79.0213L91.5158 86.4551C89.8496 87.1939 88.0496 87.5848 86.2264 87.6038L64.2055 87.8599Z" fill="#CCCCCC"/>
<path d="M13.892 127.583C13.7935 127.583 13.6953 127.575 13.5982 127.558L2.42759 125.655H2.42768C2.20415 125.617 1.9905 125.535 1.79932 125.413C1.60815 125.291 1.44331 125.133 1.3145 124.947C1.1857 124.76 1.09554 124.55 1.04933 124.328C1.00313 124.107 1.00181 123.878 1.04546 123.656L9.7891 79.141C10.1183 77.2187 11.1991 75.5058 12.7936 74.3789C14.3881 73.252 16.3658 72.8036 18.2916 73.1322C20.2173 73.4609 21.9334 74.5397 23.0623 76.1313C24.1912 77.723 24.6405 79.697 24.3112 81.6193L15.5525 126.212C15.4791 126.598 15.273 126.946 14.9699 127.196C14.6667 127.447 14.2855 127.584 13.892 127.583Z" fill="#CCCCCC"/>
<path d="M7.91678 137.258C11.6722 137.258 14.7166 134.219 14.7166 130.471C14.7166 126.722 11.6722 123.683 7.91678 123.683C4.16133 123.683 1.11694 126.722 1.11694 130.471C1.11694 134.219 4.16133 137.258 7.91678 137.258Z" fill="#EDEDED"/>
<path d="M40.9047 72.2777C54.8833 72.2777 66.2152 60.9663 66.2152 47.013C66.2152 33.0597 54.8833 21.7483 40.9047 21.7483C26.9261 21.7483 15.5942 33.0597 15.5942 47.013C15.5942 60.9663 26.9261 72.2777 40.9047 72.2777Z" fill="#EDEDED"/>
<path d="M40.9047 72.2777C54.8833 72.2777 66.2152 60.9663 66.2152 47.013C66.2152 33.0597 54.8833 21.7483 40.9047 21.7483C26.9261 21.7483 15.5942 33.0597 15.5942 47.013C15.5942 60.9663 26.9261 72.2777 40.9047 72.2777Z" fill="#EDEDED"/>
<path d="M40.9046 66.2443C51.5451 66.2443 60.1708 57.6342 60.1708 47.013C60.1708 36.3918 51.5451 27.7817 40.9046 27.7817C30.2642 27.7817 21.6384 36.3918 21.6384 47.013C21.6384 57.6342 30.2642 66.2443 40.9046 66.2443Z" fill="#FF6933"/>
<path d="M43.1571 55.086C41.9082 55.0514 40.354 55.0081 39.1565 54.135C38.8 53.8644 38.507 53.5192 38.2982 53.1236C38.0894 52.728 37.9697 52.2916 37.9476 51.8451C37.926 51.5277 37.9782 51.2096 38.1001 50.9157C38.222 50.6218 38.4103 50.36 38.6504 50.1508C39.2758 49.6232 40.1891 49.4995 41.1733 49.7882L40.1536 42.35L40.9021 42.2476L42.1009 50.9922L41.4758 50.7059C40.7511 50.3741 39.7563 50.2053 39.1382 50.7267C38.9864 50.863 38.8681 51.0325 38.7926 51.2218C38.7171 51.4112 38.6863 51.6154 38.7027 51.8186C38.721 52.151 38.8109 52.4755 38.9661 52.7701C39.1213 53.0647 39.3383 53.3225 39.6023 53.526C40.5341 54.2054 41.773 54.293 43.1781 54.3322L43.1571 55.086Z" fill="#252525"/>
<path d="M36.4517 42.9915H32.3826V43.7457H36.4517V42.9915Z" fill="#252525"/>
<path d="M49.2957 42.9915H45.2266V43.7457H49.2957V42.9915Z" fill="#252525"/>
<path opacity="0.2" d="M27.9385 47.1348C27.9388 42.5394 29.5873 38.096 32.5855 34.6087C35.5836 31.1215 39.7335 28.8209 44.2838 28.1234C41.5344 27.6597 38.717 27.7974 36.0261 28.5269C33.3352 29.2563 30.835 30.5602 28.6983 32.3484C26.5615 34.1367 24.8392 36.3666 23.6502 38.8842C22.4612 41.4018 21.8339 44.147 21.8116 46.9302C21.7894 49.7134 22.3727 52.4683 23.5213 55.0045C24.6699 57.5407 26.3563 59.7978 28.4642 61.6199C30.5721 63.4419 33.0511 64.7854 35.73 65.5577C38.4088 66.33 41.2237 66.5125 43.9802 66.0927C39.4942 65.3323 35.4227 63.0116 32.4866 59.5417C29.5505 56.0719 27.9393 51.6767 27.9385 47.1348Z" fill="#252525"/>
<path d="M60.1708 127.642H21.6385C19.9859 127.641 18.4015 126.984 17.233 125.818C16.0645 124.652 15.4071 123.07 15.4053 121.421V78.0558C15.4071 76.4062 16.0645 74.8247 17.233 73.6583C18.4015 72.4918 19.9859 71.8357 21.6385 71.8339H27.4939V73.5307C27.4952 74.6805 27.9533 75.7827 28.7677 76.5957C29.5822 77.4086 30.6864 77.8659 31.8382 77.8672H49.9711C51.1229 77.8659 52.2271 77.4086 53.0416 76.5957C53.856 75.7827 54.3141 74.6805 54.3154 73.5307V71.8339H60.1708C61.8234 71.8357 63.4078 72.4918 64.5763 73.6583C65.7449 74.8247 66.4022 76.4062 66.404 78.0558V121.421C66.4022 123.07 65.7449 124.652 64.5763 125.818C63.4078 126.984 61.8234 127.641 60.1708 127.642Z" fill="#EDEDED"/>
<path d="M65.3409 169.31H50.2268V151.893L30.488 121.683L43.1449 113.443L62.7974 143.522C64.2046 145.674 64.9745 148.179 65.0183 150.749L65.3409 169.31Z" fill="#EDEDED"/>
<path d="M38.7049 180.812H23.9719V136.693H38.7049V180.812Z" fill="#EDEDED"/>
<path d="M57.1486 140.84H24.6605C23.8092 140.839 22.993 140.501 22.391 139.901C21.789 139.3 21.4504 138.485 21.4495 137.635V125.568C21.4504 124.719 21.789 123.904 22.391 123.303C22.993 122.702 23.8092 122.364 24.6605 122.363H57.1486C57.9999 122.364 58.8161 122.702 59.4181 123.303C60.0201 123.904 60.3587 124.719 60.3596 125.568V137.635C60.3587 138.485 60.0201 139.3 59.4181 139.901C58.8161 140.501 57.9999 140.839 57.1486 140.84Z" fill="#EDEDED"/>
<path d="M67.982 176.286H50.4158V164.597H67.982C69.535 164.597 71.0243 165.213 72.1224 166.309C73.2205 167.405 73.8374 168.891 73.8374 170.442C73.8374 171.992 73.2205 173.478 72.1224 174.575C71.0243 175.671 69.535 176.286 67.982 176.286Z" fill="#CCCCCC"/>
<path d="M41.5382 180.811H23.9719V169.122H41.5382C43.0911 169.122 44.5805 169.738 45.6786 170.834C46.7767 171.93 47.3936 173.417 47.3936 174.967C47.3936 176.517 46.7767 178.003 45.6786 179.1C44.5805 180.196 43.0911 180.811 41.5382 180.811Z" fill="#CCCCCC"/>
<path d="M59.2933 91.0652H45.3158C44.9652 91.0652 44.6289 90.9261 44.3809 90.6786C44.133 90.4311 43.9937 90.0954 43.9937 89.7454C43.9937 89.3954 44.133 89.0597 44.3809 88.8122C44.6289 88.5646 44.9652 88.4256 45.3158 88.4256H59.2933C59.6439 88.4256 59.9802 88.5646 60.2282 88.8122C60.4762 89.0597 60.6155 89.3954 60.6155 89.7454C60.6155 90.0954 60.4762 90.4311 60.2282 90.6786C59.9802 90.9261 59.6439 91.0652 59.2933 91.0652Z" fill="#9A9A9A"/>
<path d="M59.2933 95.7788H45.3158C44.9652 95.7788 44.6289 95.6398 44.3809 95.3922C44.133 95.1447 43.9937 94.809 43.9937 94.459C43.9937 94.109 44.133 93.7733 44.3809 93.5257C44.6289 93.2782 44.9652 93.1392 45.3158 93.1392H59.2933C59.6439 93.1392 59.9802 93.2782 60.2282 93.5257C60.4762 93.7733 60.6155 94.109 60.6155 94.459C60.6155 94.809 60.4762 95.1447 60.2282 95.3922C59.9802 95.6398 59.6439 95.7788 59.2933 95.7788Z" fill="#9A9A9A"/>
<path d="M83.1091 181H0.377769C0.277578 181 0.181497 180.96 0.110651 180.89C0.039806 180.819 0 180.723 0 180.623C0 180.523 0.039806 180.427 0.110651 180.356C0.181497 180.286 0.277578 180.246 0.377769 180.246H83.1091C83.2093 180.246 83.3054 180.286 83.3762 180.356C83.4471 180.427 83.4869 180.523 83.4869 180.623C83.4869 180.723 83.4471 180.819 83.3762 180.89C83.3054 180.96 83.2093 181 83.1091 181Z" fill="#252525"/>
<path d="M110.292 76.1703C114.047 76.1703 117.092 73.1314 117.092 69.3828C117.092 65.6341 114.047 62.5952 110.292 62.5952C106.537 62.5952 103.492 65.6341 103.492 69.3828C103.492 73.1314 106.537 76.1703 110.292 76.1703Z" fill="#EDEDED"/>
<path d="M112.37 96.7214C111.769 96.7208 111.193 96.4822 110.768 96.058C110.343 95.6339 110.104 95.0588 110.103 94.4589V13.0085C110.103 12.4085 110.342 11.833 110.767 11.4087C111.192 10.9844 111.768 10.746 112.37 10.746C112.971 10.746 113.547 10.9844 113.972 11.4087C114.397 11.833 114.636 12.4085 114.636 13.0085V94.4589C114.636 95.0588 114.397 95.6339 113.972 96.058C113.547 96.4822 112.971 96.7208 112.37 96.7214Z" fill="#3F3D56"/>
<path d="M181.184 11.4399C179.193 9.70153 172.356 4.29037 163.535 3.30241C156.935 2.5671 149.225 4.30546 141.605 11.915C135.493 18.0163 129.728 20.9085 124.47 20.5164C119.102 20.1129 115.532 16.3043 113.881 14.0682C113.765 13.9083 113.601 13.7898 113.413 13.7301C113.224 13.6703 113.022 13.6725 112.835 13.7364C112.644 13.7962 112.477 13.9157 112.359 14.0773C112.242 14.2389 112.179 14.434 112.181 14.6338V42.787C112.181 42.9655 112.232 43.1402 112.328 43.291C112.423 43.4417 112.56 43.5625 112.721 43.6392C114.78 44.6121 122.196 47.8437 129.66 47.8437C134.039 47.8437 138.44 46.7313 141.779 43.3941C141.813 43.3602 141.843 43.33 141.877 43.2998C147.793 37.5531 160.834 38.7333 170.35 40.6112C174.286 41.388 177.618 42.2817 179.594 42.8549C179.847 42.9278 180.113 42.941 180.372 42.8935C180.631 42.8459 180.875 42.7389 181.086 42.5809C181.296 42.4229 181.466 42.2182 181.584 41.983C181.701 41.7478 181.762 41.4886 181.762 41.2259V12.7182C181.762 12.4764 181.711 12.2373 181.611 12.0169C181.512 11.7965 181.366 11.5998 181.184 11.4399Z" fill="#FF6933"/>
<path d="M196.423 91.6309C198.301 91.6309 199.823 90.1114 199.823 88.2371C199.823 86.3628 198.301 84.8433 196.423 84.8433C194.545 84.8433 193.023 86.3628 193.023 88.2371C193.023 90.1114 194.545 91.6309 196.423 91.6309Z" fill="#B50000"/>
<path d="M190.379 128.962C192.257 128.962 193.779 127.443 193.779 125.568C193.779 123.694 192.257 122.175 190.379 122.175C188.501 122.175 186.979 123.694 186.979 125.568C186.979 127.443 188.501 128.962 190.379 128.962Z" fill="#B50000"/>
<path d="M179.424 105.583C182.553 105.583 185.09 103.051 185.09 99.9267C185.09 96.8028 182.553 94.2704 179.424 94.2704C176.294 94.2704 173.757 96.8028 173.757 99.9267C173.757 103.051 176.294 105.583 179.424 105.583Z" fill="#B50000"/>
</svg>
