<svg width="218" height="354" viewBox="0 0 218 354" fill="none" xmlns="http://www.w3.org/2000/svg">
<path d="M106.326 186.56C123.594 186.56 137.593 172.548 137.593 155.263C137.593 137.978 123.594 123.966 106.326 123.966C89.0578 123.966 75.0591 137.978 75.0591 155.263C75.0591 172.548 89.0578 186.56 106.326 186.56Z" fill="#F68F1F"/>
<path d="M30.2816 231.418C29.6191 231.101 29.0543 230.61 28.6464 229.999C28.2385 229.387 28.0026 228.677 27.9633 227.943L27.5084 219.324C27.4523 218.24 27.8281 217.178 28.5533 216.371C29.2784 215.564 30.2938 215.079 31.3765 215.02L103.144 211.225C104.226 211.169 105.287 211.545 106.093 212.271C106.899 212.997 107.385 214.013 107.443 215.097L107.898 223.716C107.954 224.8 107.578 225.862 106.853 226.668C106.128 227.475 105.113 227.961 104.03 228.02L32.2629 231.815C31.5797 231.852 30.8982 231.715 30.2816 231.418Z" fill="#F68F1F"/>
<path d="M100.231 354H91.6086C90.5243 353.999 89.4848 353.567 88.7181 352.8C87.9515 352.032 87.5202 350.992 87.519 349.907V276.801C87.5203 275.715 87.9515 274.675 88.7182 273.907C89.4849 273.14 90.5243 272.708 91.6086 272.707H100.231C101.315 272.708 102.355 273.14 103.122 273.907C103.888 274.675 104.32 275.715 104.321 276.801V349.907C104.32 350.992 103.888 352.032 103.122 352.8C102.355 353.567 101.315 353.999 100.231 354Z" fill="#F68F1F"/>
<path d="M122.975 354H114.353C113.268 353.999 112.229 353.567 111.462 352.8C110.696 352.032 110.264 350.992 110.263 349.907V276.801C110.264 275.715 110.696 274.675 111.462 273.907C112.229 273.14 113.268 272.708 114.353 272.707H122.975C124.06 272.708 125.099 273.14 125.866 273.907C126.632 274.675 127.064 275.715 127.065 276.801V349.907C127.064 350.992 126.632 352.032 125.866 352.8C125.099 353.567 124.06 353.999 122.975 354Z" fill="#F68F1F"/>
<path d="M110.489 166.863L110.521 165.693C108.347 165.633 106.431 165.496 104.991 164.443C104.583 164.128 104.247 163.728 104.007 163.271C103.767 162.814 103.628 162.31 103.6 161.795C103.574 161.48 103.622 161.163 103.739 160.87C103.856 160.576 104.039 160.314 104.273 160.102C105.229 159.294 106.767 159.556 107.888 160.07L108.855 160.514L107.001 146.953L105.844 147.111L107.421 158.647C106.775 158.407 106.08 158.333 105.398 158.431C104.717 158.53 104.071 158.797 103.519 159.209C103.148 159.534 102.857 159.939 102.668 160.395C102.479 160.851 102.399 161.344 102.432 161.836C102.466 162.529 102.651 163.205 102.974 163.819C103.297 164.433 103.75 164.968 104.302 165.388C106.152 166.741 108.556 166.808 110.489 166.863Z" fill="#2F2E41"/>
<path d="M100.119 148.106H93.8257V149.276H100.119V148.106Z" fill="#2F2E41"/>
<path d="M119.982 148.106H113.689V149.276H119.982V148.106Z" fill="#2F2E41"/>
<path d="M141.948 259.491L113.089 201.887H113.496C114.503 201.885 115.468 201.485 116.18 200.772C116.892 200.059 117.292 199.093 117.293 198.085V196.916C117.292 195.908 116.892 194.942 116.18 194.229C115.468 193.517 114.503 193.116 113.496 193.115H100.643C99.6362 193.116 98.671 193.517 97.9591 194.229C97.2472 194.942 96.8467 195.908 96.8456 196.916V198.085C96.8485 199.015 97.1924 199.911 97.8121 200.604C98.4317 201.297 99.2838 201.737 100.207 201.842L71.2643 259.523C69.8878 262.266 69.2354 265.316 69.3691 268.383C69.5029 271.45 70.4182 274.431 72.0281 277.044C73.6381 279.657 75.8891 281.814 78.567 283.31C81.2448 284.806 84.2606 285.591 87.3273 285.591H125.855C128.925 285.591 131.945 284.805 134.627 283.307C137.308 281.81 139.562 279.651 141.175 277.035C142.788 274.42 143.706 271.435 143.841 268.364C143.976 265.293 143.325 262.239 141.948 259.491Z" fill="#2F2E41"/>
<path d="M107.676 214.924L172.774 184.445C173.757 183.986 174.881 183.937 175.9 184.306C176.92 184.676 177.751 185.436 178.211 186.419L181.864 194.237C182.323 195.22 182.373 196.346 182.003 197.366C181.633 198.386 180.874 199.218 179.893 199.679L114.795 230.158C113.812 230.616 112.688 230.666 111.669 230.296C110.649 229.926 109.818 229.167 109.358 228.184L105.705 220.366C105.476 219.88 105.346 219.352 105.322 218.815C105.299 218.278 105.381 217.742 105.566 217.237C105.711 216.836 105.916 216.461 106.176 216.124C106.573 215.61 107.088 215.198 107.676 214.924Z" fill="#F68F1F"/>
<path d="M105.444 214.736L134.104 197.636C135.081 197.167 136.204 197.105 137.227 197.463C138.25 197.821 139.089 198.571 139.561 199.547L146.788 214.082C147.022 214.568 147.157 215.096 147.187 215.635C147.216 216.173 147.138 216.713 146.959 217.221C146.779 217.73 146.5 218.198 146.139 218.598C145.778 218.999 145.341 219.324 144.854 219.555L114.238 231.393C113.436 231.779 111.862 231.056 110.598 230.476C110.201 230.294 109.859 230.136 109.625 230.054C109.522 230.018 109.421 229.978 109.323 229.935C108.433 229.541 107.713 228.843 107.292 227.965L103.554 220.187C103.225 219.501 103.093 218.738 103.173 217.981C103.252 217.225 103.54 216.505 104.004 215.903C104.387 215.407 104.88 215.007 105.444 214.736Z" fill="#2F2E41"/>
<path d="M81.631 138.985C81.2127 138.984 80.8119 138.817 80.5162 138.52C80.2206 138.224 80.054 137.823 80.0529 137.404C80.051 137.28 80.065 137.156 80.0945 137.035L88.2668 101.003C88.3287 100.731 88.4607 100.481 88.6496 100.277C88.8385 100.073 89.0777 99.9215 89.3432 99.8388C89.6087 99.7561 89.8912 99.7447 90.1625 99.8057C90.4339 99.8667 90.6845 99.9979 90.8892 100.186L117.983 125.3C118.187 125.489 118.337 125.729 118.42 125.994C118.502 126.26 118.513 126.543 118.452 126.814C118.391 127.086 118.26 127.336 118.072 127.541C117.884 127.746 117.646 127.898 117.38 127.981L82.106 138.914C81.952 138.961 81.792 138.985 81.631 138.985Z" fill="#3F3D56"/>
<path d="M103.792 112.644L86.7729 109.254L87.0407 108.071L102.087 111.065L103.792 112.644Z" fill="white"/>
<path d="M117.192 125.07L84.6528 118.589L84.9206 117.4L115.486 123.485L117.192 125.07Z" fill="white"/>
<path d="M105.552 131.265L103.109 132.021L82.5396 127.923L82.8073 126.734L105.552 131.265Z" fill="white"/>
<path d="M184.89 139.536C187.726 139.536 190.026 137.234 190.026 134.395C190.026 131.556 187.726 129.254 184.89 129.254C182.053 129.254 179.754 131.556 179.754 134.395C179.754 137.234 182.053 139.536 184.89 139.536Z" fill="#F68F1F"/>
<path d="M118.858 7.34399C120.884 7.34399 122.526 5.69998 122.526 3.67199C122.526 1.64401 120.884 0 118.858 0C116.832 0 115.189 1.64401 115.189 3.67199C115.189 5.69998 116.832 7.34399 118.858 7.34399Z" fill="#FF6584"/>
<path d="M38.8857 121.176C40.9118 121.176 42.5542 119.532 42.5542 117.504C42.5542 115.476 40.9118 113.832 38.8857 113.832C36.8597 113.832 35.2173 115.476 35.2173 117.504C35.2173 119.532 36.8597 121.176 38.8857 121.176Z" fill="#FF6584"/>
<path d="M167.281 108.691C169.307 108.691 170.95 107.047 170.95 105.019C170.95 102.991 169.307 101.347 167.281 101.347C165.255 101.347 163.613 102.991 163.613 105.019C163.613 107.047 165.255 108.691 167.281 108.691Z" fill="#F68F1F"/>
<path d="M55.7602 158.63C57.7863 158.63 59.4287 156.986 59.4287 154.958C59.4287 152.93 57.7863 151.286 55.7602 151.286C53.7342 151.286 52.0918 152.93 52.0918 154.958C52.0918 156.986 53.7342 158.63 55.7602 158.63Z" fill="#F68F1F"/>
<path d="M139.401 38.1887C141.427 38.1887 143.069 36.5447 143.069 34.5167C143.069 32.4887 141.427 30.8447 139.401 30.8447C137.375 30.8447 135.732 32.4887 135.732 34.5167C135.732 36.5447 137.375 38.1887 139.401 38.1887Z" fill="#CCCCCC"/>
<path d="M0.745977 78.5634C4.58722 78.8057 8.31643 79.9556 11.6279 81.9191C14.9394 83.8825 17.7389 86.6035 19.797 89.8591C20.3737 90.782 21.1266 91.7962 20.7274 92.9322C20.5883 93.3678 20.3057 93.7432 19.9258 93.9972C19.5459 94.2512 19.0911 94.3686 18.6359 94.3304C18.0683 94.2081 17.5567 93.9023 17.1799 93.4601C16.8032 93.0179 16.5822 92.4639 16.5512 91.8836C16.5201 91.3033 16.6806 90.7288 17.008 90.2489C17.3354 89.7689 17.8115 89.4101 18.3628 89.2278C21.0269 88.0903 23.7148 89.8483 25.8849 91.2512C30.8297 94.4481 36.2684 97.3392 42.2601 97.7035C47.8038 98.0406 53.7485 95.8648 56.832 91.0527C57.3715 90.2109 56.0321 89.4329 55.4953 90.2706C52.4372 95.043 46.2551 96.757 40.8799 96.0194C37.6766 95.5134 34.5835 94.4623 31.7346 92.9115C30.2572 92.1441 28.8243 91.2933 27.4203 90.3989C26.0844 89.4658 24.6683 88.6533 23.1888 87.9708C20.7214 86.9563 17.455 87.0355 15.7315 89.3714C14.1235 91.5506 15.3662 95.1786 18.0555 95.7913C18.6455 95.9077 19.2551 95.8757 19.8297 95.6983C20.4043 95.5209 20.9259 95.2035 21.3478 94.7746C21.7697 94.3457 22.0786 93.8188 22.247 93.2409C22.4154 92.6631 22.4379 92.0525 22.3125 91.4639C22.0441 90.1806 21.0788 88.9248 20.3315 87.8758C18.0863 84.7144 15.1612 82.0973 11.7716 80.2175C8.38198 78.3376 4.61423 77.2429 0.745887 77.0138C-0.249927 76.9645 -0.24733 78.5142 0.745887 78.5634L0.745977 78.5634Z" fill="#CCCCCC"/>
<path d="M217.707 125.47C215.133 123.812 212.988 121.566 211.449 118.918C209.909 116.269 209.019 113.293 208.85 110.234C208.807 109.369 208.677 108.373 209.394 107.739C209.659 107.49 210.001 107.339 210.363 107.31C210.725 107.281 211.087 107.376 211.388 107.579C211.735 107.884 211.972 108.295 212.062 108.748C212.152 109.202 212.091 109.672 211.888 110.087C211.685 110.502 211.351 110.839 210.938 111.045C210.525 111.251 210.055 111.316 209.602 111.229C207.311 110.985 206.125 108.721 205.161 106.905C202.965 102.766 200.307 98.6479 196.287 96.0701C192.568 93.6851 187.596 92.8896 183.592 95.0351C182.891 95.4105 183.52 96.4705 184.217 96.097C188.189 93.9691 193.146 95.1774 196.594 97.7752C198.622 99.3695 200.363 101.3 201.741 103.482C202.47 104.588 203.136 105.735 203.765 106.901C204.331 108.067 205 109.181 205.763 110.229C207.084 111.891 209.383 113.103 211.485 112.15C211.953 111.907 212.358 111.558 212.667 111.131C212.977 110.704 213.182 110.21 213.267 109.689C213.352 109.168 213.313 108.635 213.155 108.131C212.997 107.628 212.724 107.168 212.357 106.79C211.992 106.48 211.556 106.265 211.088 106.166C210.621 106.066 210.136 106.084 209.676 106.218C209.217 106.352 208.799 106.598 208.458 106.934C208.117 107.27 207.865 107.686 207.724 108.143C207.508 109.219 207.504 110.326 207.711 111.404C208.046 114.47 209.064 117.423 210.69 120.044C212.316 122.664 214.509 124.887 217.107 126.547C217.779 126.967 218.377 125.89 217.707 125.47L217.707 125.47Z" fill="#CCCCCC"/>
<path d="M91.118 23.7988C88.0629 23.6061 85.0969 22.6915 82.4631 21.1299C79.8293 19.5683 77.6028 17.4041 75.9659 14.8148C75.5072 14.0808 74.9084 13.2741 75.2259 12.3706C75.3365 12.0242 75.5613 11.7256 75.8635 11.5236C76.1656 11.3216 76.5273 11.2282 76.8893 11.2586C77.3408 11.3559 77.7477 11.5991 78.0474 11.9508C78.347 12.3025 78.5227 12.7431 78.5474 13.2047C78.5721 13.6662 78.4444 14.1231 78.184 14.5048C77.9236 14.8865 77.545 15.1719 77.1066 15.3169C74.9877 16.2216 72.8498 14.8234 71.1238 13.7076C67.191 11.165 62.8653 8.86553 58.0998 8.57576C53.6907 8.30771 48.9625 10.0382 46.5101 13.8654C46.081 14.535 47.1463 15.1538 47.5733 14.4875C50.0055 10.6918 54.9224 9.32852 59.1976 9.9152C61.7453 10.3176 64.2054 11.1536 66.4713 12.387C67.6463 12.9975 68.786 13.6741 69.9026 14.3854C70.9651 15.1276 72.0914 15.7738 73.2681 16.3166C75.2306 17.1236 77.8285 17.0605 79.1993 15.2027C79.4901 14.7624 79.6739 14.2602 79.7361 13.7361C79.7983 13.2121 79.7371 12.6807 79.5575 12.1845C79.3779 11.6883 79.0848 11.2411 78.7016 10.8786C78.3185 10.516 77.8559 10.2483 77.3509 10.0967C76.8817 10.0041 76.3968 10.0295 75.9398 10.1706C75.4828 10.3117 75.0679 10.5641 74.7324 10.9053C74.3968 11.2464 74.1511 11.6655 74.0172 12.125C73.8833 12.5846 73.8654 13.0702 73.9651 13.5384C74.3 14.5832 74.8352 15.5525 75.5407 16.3922C77.3264 18.9067 79.6529 20.9881 82.3488 22.4833C85.0448 23.9784 88.0414 24.8491 91.1181 25.0312C91.9101 25.0705 91.908 23.8379 91.1181 23.7988L91.118 23.7988Z" fill="#CCCCCC"/>
<path d="M93.9121 62.8438H90.2437V74.9089H93.9121V62.8438Z" fill="#CCCCCC"/>
<path d="M34.5985 54.424L37.1479 51.8721L28.7711 43.4871L26.2216 46.0391L34.5985 54.424Z" fill="#B3B3B3"/>
<path d="M137.743 79.7791L140.292 82.3311L148.669 73.9461L146.119 71.3942L137.743 79.7791Z" fill="#B3B3B3"/>
<path d="M33.5584 184.064L36.1079 186.616L44.4848 178.231L41.9353 175.679L33.5584 184.064Z" fill="#FF6584"/>
</svg>
