<svg width="234" height="210" viewBox="0 0 234 210" fill="none" xmlns="http://www.w3.org/2000/svg">
<defs>
<linearGradient id="paint0_linear" x1="94.5363" y1="121.404" x2="147.389" y2="121.404" gradientUnits="userSpaceOnUse">
<stop stop-color="#F15A24"/>
<stop offset="1" stop-color="#F68F1F"/>
<stop offset="1" stop-color="#F68F1F"/>
</linearGradient>
<linearGradient id="paint1_linear" x1="121.365" y1="84.6043" x2="160.93" y2="84.6043" gradientUnits="userSpaceOnUse">
<stop stop-color="#F15A24"/>
<stop offset="1" stop-color="#F68F1F"/>
<stop offset="1" stop-color="#F68F1F"/>
</linearGradient>
<linearGradient id="paint2_linear" x1="139.028" y1="142.845" x2="150.185" y2="142.845" gradientUnits="userSpaceOnUse">
<stop stop-color="#F15A24"/>
<stop offset="1" stop-color="#F68F1F"/>
<stop offset="1" stop-color="#F68F1F"/>
</linearGradient>
<linearGradient id="paint3_linear" x1="17.4198" y1="50.9558" x2="41.8062" y2="50.9558" gradientUnits="userSpaceOnUse">
<stop stop-color="#F15A24"/>
<stop offset="1" stop-color="#F68F1F"/>
<stop offset="1" stop-color="#F68F1F"/>
</linearGradient>
<linearGradient id="paint4_linear" x1="79.5135" y1="21.0739" x2="120.858" y2="21.0739" gradientUnits="userSpaceOnUse">
<stop stop-color="#F15A24"/>
<stop offset="1" stop-color="#F68F1F"/>
<stop offset="1" stop-color="#F68F1F"/>
</linearGradient>
</defs>
<path d="M231.927 172.848C229.799 185.971 220.209 196.132 209.999 205.012C208.573 206.252 207.144 207.468 205.712 208.66C205.702 208.666 205.692 208.677 205.682 208.683C205.613 208.74 205.544 208.797 205.48 208.854C205.185 209.1 204.889 209.345 204.596 209.588L204.78 209.646L205.353 209.822C205.156 209.768 204.962 209.717 204.765 209.662C204.707 209.646 204.646 209.632 204.587 209.615C197.818 207.783 190.911 205.772 185.377 201.48C179.636 197.022 175.682 189.422 177.662 182.419C177.923 181.502 178.285 180.616 178.741 179.779C178.928 179.429 179.134 179.09 179.35 178.756C180.659 176.697 182.491 175.024 184.658 173.909C186.826 172.794 189.251 172.278 191.683 172.414C194.116 172.55 196.468 173.332 198.499 174.681C200.53 176.029 202.166 177.896 203.238 180.088C203.141 172.372 196.108 166.746 189.511 162.764C182.911 158.784 175.439 154.485 173.364 147.05C172.208 142.914 173.181 138.653 175.452 135.054C175.523 134.944 175.593 134.835 175.667 134.728C178.452 130.518 182.72 127.517 187.618 126.323C196.757 124.246 206.335 128.072 213.831 133.71C225.895 142.781 234.347 157.927 231.927 172.848Z" fill="#1B774C"/>
<path d="M212.543 158.351C214.651 160.906 216.376 163.756 217.664 166.81C218.77 169.544 219.463 172.43 219.718 175.37C220.274 181.409 219.13 187.514 216.85 193.103C215.076 197.346 212.774 201.347 209.999 205.012C208.573 206.252 207.144 207.468 205.712 208.66C205.702 208.666 205.692 208.677 205.682 208.683C205.613 208.74 205.544 208.797 205.48 208.854C205.185 209.1 204.889 209.345 204.596 209.588L204.78 209.646L205.353 209.822C205.156 209.768 204.962 209.716 204.765 209.662C204.707 209.646 204.646 209.632 204.587 209.615C204.596 204.791 203.451 200.036 201.248 195.747C199.045 191.459 195.848 187.762 191.925 184.966C188 182.22 183.482 180.443 178.741 179.779C178.928 179.429 179.134 179.09 179.35 178.756C181.185 179.041 182.99 179.488 184.746 180.092C191.021 182.233 196.442 186.341 200.205 191.808C203.59 196.777 205.489 202.61 205.681 208.623C205.917 208.35 206.153 208.072 206.382 207.797C210.738 202.624 214.465 196.838 216.687 190.412C218.629 184.962 219.204 179.118 218.361 173.393C217.37 167.16 214.184 161.659 209.974 157.043C205.464 152.103 200.048 147.905 194.381 144.385C188.576 140.772 182.351 137.884 175.845 135.786C175.698 135.738 175.576 135.635 175.502 135.499C175.429 135.362 175.411 135.203 175.452 135.054C175.478 134.921 175.555 134.804 175.666 134.728C175.724 134.694 175.789 134.673 175.856 134.668C175.923 134.663 175.99 134.673 176.053 134.698C176.856 134.957 177.655 135.222 178.449 135.503C185.065 137.845 191.366 141.001 197.205 144.899C202.845 148.653 208.259 153.066 212.543 158.351Z" fill="white"/>
<path d="M97.4782 128.384C96.8276 128.383 96.2017 128.134 95.7271 127.688C95.2526 127.242 94.965 126.632 94.9224 125.981L94.5417 120.157C94.4973 119.477 94.7243 118.807 95.1729 118.295C95.6215 117.782 96.2549 117.469 96.9338 117.425L142.471 114.436C143.189 114.389 143.909 114.484 144.591 114.715C145.272 114.947 145.901 115.311 146.442 115.786C146.983 116.261 147.426 116.839 147.744 117.485C148.062 118.132 148.25 118.835 148.297 119.555C148.344 120.274 148.25 120.996 148.018 121.678C147.787 122.361 147.423 122.991 146.949 123.533C146.474 124.075 145.898 124.518 145.252 124.837C144.607 125.155 143.905 125.343 143.187 125.39L97.6498 128.378C97.5924 128.382 97.5353 128.384 97.4782 128.384Z" fill="url(#paint0_linear)"/>
<path d="M106.457 129.135C105.794 129.134 105.157 128.875 104.679 128.414C104.201 127.953 103.92 127.324 103.895 126.66L103.57 117.961C103.558 117.624 103.612 117.288 103.729 116.971C103.846 116.655 104.024 116.365 104.253 116.117C104.483 115.87 104.758 115.67 105.064 115.529C105.371 115.389 105.701 115.31 106.038 115.297L143.484 113.895C144.164 113.869 144.826 114.116 145.325 114.579C145.824 115.043 146.118 115.686 146.144 116.367L146.468 125.066C146.481 125.403 146.427 125.74 146.31 126.056C146.192 126.373 146.014 126.663 145.785 126.91C145.556 127.158 145.28 127.358 144.974 127.498C144.668 127.639 144.337 127.718 144 127.73L106.554 129.133C106.522 129.134 106.489 129.135 106.457 129.135Z" fill="#2F2E41"/>
<path d="M150.338 209.321H144.513C143.833 209.32 143.181 209.049 142.7 208.567C142.219 208.085 141.949 207.432 141.948 206.75V158.107C141.949 157.425 142.219 156.772 142.7 156.29C143.181 155.808 143.833 155.537 144.513 155.536H150.338C151.018 155.537 151.67 155.808 152.151 156.29C152.632 156.772 152.902 157.425 152.903 158.107V206.75C152.902 207.432 152.632 208.085 152.151 208.567C151.67 209.049 151.018 209.32 150.338 209.321Z" fill="#2F2E41"/>
<path d="M124.484 183.608L119.503 180.583C118.922 180.229 118.505 179.658 118.343 178.996C118.181 178.335 118.287 177.635 118.639 177.052L143.803 135.454C144.157 134.871 144.726 134.453 145.386 134.291C146.047 134.129 146.745 134.235 147.327 134.588L152.308 137.613C152.889 137.967 153.306 138.538 153.468 139.199C153.63 139.861 153.524 140.56 153.172 141.144L128.008 182.742C127.655 183.325 127.085 183.743 126.425 183.905C125.764 184.067 125.066 183.96 124.484 183.608Z" fill="#2F2E41"/>
<path d="M141.492 104.771C152.608 104.771 161.619 95.7422 161.619 84.6043C161.619 73.4663 152.608 64.4373 141.492 64.4373C130.376 64.4373 121.365 73.4663 121.365 84.6043C121.365 95.7422 130.376 104.771 141.492 104.771Z" fill="url(#paint1_linear)"/>
<path d="M130.597 91.4902C129.949 91.2771 129.355 90.9275 128.854 90.465C128.522 90.1347 128.266 89.7357 128.103 89.2959C127.941 88.8561 127.877 88.3861 127.916 87.9188C127.937 87.5858 128.034 87.2623 128.201 86.9734C128.367 86.6846 128.598 86.4382 128.876 86.2536C129.595 85.791 130.558 85.7896 131.538 86.2224L131.501 78.3495L132.29 78.3457L132.334 87.6012L131.726 87.2178C131.021 86.7741 130.013 86.4618 129.302 86.9193C129.126 87.0402 128.98 87.2001 128.876 87.3865C128.772 87.573 128.712 87.781 128.701 87.9944C128.675 88.3425 128.723 88.6922 128.844 89.0198C128.964 89.3474 129.153 89.6452 129.399 89.8929C130.27 90.7271 131.542 90.9879 132.992 91.2211L132.867 92.0018C132.097 91.8996 131.337 91.7284 130.597 91.4902Z" fill="#2F2E41"/>
<path d="M123.365 77.9515L123.261 78.7355L127.476 79.2932L127.579 78.5092L123.365 77.9515Z" fill="#2F2E41"/>
<path d="M136.667 79.7115L136.563 80.4955L140.778 81.0532L140.881 80.2692L136.667 79.7115Z" fill="#2F2E41"/>
<path d="M158.297 171.158H124.358C123.469 171.157 122.616 170.802 121.987 170.172C121.358 169.542 121.004 168.688 121.003 167.797L128.109 113.202C128.114 112.314 128.47 111.466 129.098 110.841C129.727 110.216 130.576 109.865 131.461 109.866H143.506C148.317 109.871 152.929 111.789 156.331 115.197C159.733 118.606 161.646 123.227 161.652 128.048V167.797C161.651 168.688 161.297 169.542 160.668 170.172C160.039 170.802 159.187 171.157 158.297 171.158Z" fill="#2F2E41"/>
<path d="M149.751 168.247C149.545 168.698 149.212 169.08 148.795 169.347C148.377 169.613 147.891 169.753 147.396 169.749L141.571 169.698C141.234 169.695 140.901 169.626 140.591 169.494C140.281 169.362 140 169.17 139.764 168.93C139.528 168.689 139.341 168.404 139.215 168.091C139.089 167.778 139.025 167.443 139.028 167.106L139.424 121.382C139.43 120.661 139.578 119.949 139.859 119.285C140.14 118.622 140.549 118.02 141.062 117.515C141.575 117.01 142.182 116.611 142.849 116.341C143.516 116.071 144.23 115.935 144.949 115.941C145.668 115.948 146.379 116.096 147.041 116.377C147.703 116.659 148.304 117.068 148.808 117.582C149.312 118.096 149.71 118.705 149.98 119.373C150.249 120.042 150.385 120.756 150.379 121.477L149.983 167.201C149.98 167.562 149.901 167.919 149.751 168.247Z" fill="url(#paint2_linear)"/>
<path d="M152.324 156.041C152.118 156.492 151.786 156.874 151.368 157.14C150.95 157.407 150.464 157.546 149.969 157.542L140.02 157.456C139.34 157.449 138.691 157.173 138.214 156.687C137.737 156.201 137.472 155.545 137.478 154.863L137.803 117.318C137.805 116.98 137.875 116.647 138.006 116.336C138.138 116.025 138.329 115.743 138.57 115.507C138.81 115.27 139.094 115.083 139.407 114.957C139.719 114.83 140.053 114.767 140.39 114.77L150.338 114.856C150.675 114.859 151.008 114.928 151.318 115.06C151.628 115.192 151.91 115.384 152.146 115.625C152.382 115.865 152.568 116.15 152.695 116.463C152.821 116.776 152.884 117.111 152.881 117.449L152.556 154.995C152.554 155.356 152.474 155.713 152.324 156.041Z" fill="#2F2E41"/>
<path d="M141.868 72.6433C139.177 70.4124 135.581 72.5224 132.538 72.2229C129.627 71.9364 127.284 69.3695 126.646 66.6073C125.901 63.3847 127.515 60.1111 129.948 58.0468C132.611 55.7857 136.188 55.0831 139.596 55.4272C143.503 55.8215 147.101 57.574 150.342 59.715C153.468 61.7157 156.352 64.0721 158.938 66.7373C161.255 69.2053 163.234 72.1619 163.912 75.5294C164.528 78.5898 164.167 82.0009 162.404 84.637C161.469 85.9886 160.202 87.076 158.725 87.794C157.186 88.588 155.539 89.166 154.05 90.0589C151.799 91.4091 149.638 94.1608 150.405 96.967C150.569 97.58 150.882 98.1432 151.314 98.6068C151.834 99.1636 152.739 98.3975 152.217 97.8393C151.302 96.8589 151.312 95.5279 151.767 94.3278C152.31 92.975 153.295 91.847 154.562 91.1287C156.12 90.1961 157.849 89.6059 159.448 88.753C160.98 87.9725 162.3 86.8329 163.297 85.4311C165.179 82.7031 165.691 79.1897 165.191 75.958C164.65 72.4608 162.792 69.3089 160.488 66.6818C157.98 63.8228 154.92 61.4206 151.8 59.2696C148.453 56.9616 144.766 55.0266 140.715 54.3785C137.203 53.8166 133.417 54.2758 130.392 56.2451C127.569 58.0834 125.437 61.1938 125.284 64.6269C125.235 66.1885 125.603 67.7349 126.349 69.107C127.095 70.479 128.192 71.6272 129.528 72.4332C130.898 73.2196 132.479 73.5552 134.05 73.3926C135.729 73.2527 137.402 72.7047 139.097 72.8158C139.864 72.8478 140.599 73.1293 141.192 73.6177C141.78 74.1052 142.451 73.1268 141.868 72.6434V72.6433Z" fill="#2F2E41"/>
<path d="M118.201 177.755C118.209 177.711 118.217 177.666 118.227 177.622C118.297 177.291 118.432 176.978 118.624 176.701C118.815 176.423 119.06 176.186 119.344 176.004L124.239 172.84C124.811 172.472 125.505 172.345 126.17 172.489C126.835 172.633 127.415 173.035 127.785 173.607L142.884 197.064C143.253 197.637 143.379 198.333 143.236 198.999C143.092 199.666 142.691 200.248 142.119 200.617L137.224 203.781C136.652 204.149 135.958 204.276 135.293 204.132C134.628 203.988 134.047 203.586 133.678 203.014L118.578 179.557C118.233 179.024 118.099 178.382 118.201 177.755Z" fill="#2F2E41"/>
<path d="M99.8694 23.1622C99.4934 22.2674 98.8637 21.5028 98.0584 20.963C97.2532 20.4231 96.3075 20.1317 95.3386 20.1248H4.90237C3.60239 20.1255 2.35586 20.6432 1.43664 21.5643C0.517419 22.4853 0.000698512 23.7343 0 25.0369V139.676C0.000698512 140.978 0.517419 142.227 1.43664 143.148C2.35586 144.069 3.60239 144.587 4.90237 144.588H95.3419C96.6416 144.586 97.8875 144.068 98.8065 143.147C99.7255 142.226 100.243 140.978 100.244 139.676V25.0369C100.246 24.3934 100.12 23.756 99.8727 23.1622H99.8694ZM99.1524 139.676C99.1511 140.689 98.749 141.66 98.034 142.376C97.3191 143.093 96.3498 143.496 95.3387 143.497H4.90237C3.89108 143.497 2.92125 143.094 2.2061 142.378C1.49095 141.661 1.08902 140.689 1.08867 139.676V25.0376C1.09005 24.0245 1.49229 23.0533 2.2072 22.337C2.92211 21.6207 3.89134 21.2176 4.90237 21.2163H95.3419C96.1036 21.2192 96.847 21.4494 97.4775 21.8775C98.108 22.3056 98.5969 22.9123 98.8818 23.6201C98.9372 23.7611 98.9851 23.905 99.0252 24.0512C99.1117 24.3728 99.1556 24.7044 99.1556 25.0375L99.1524 139.676Z" fill="#3F3D56"/>
<path d="M80.9968 47.1906H53.7561C53.1781 47.1906 52.6238 46.9605 52.2151 46.551C51.8064 46.1415 51.5768 45.5861 51.5768 45.0069C51.5768 44.4278 51.8064 43.8724 52.2151 43.4628C52.6238 43.0533 53.1781 42.8232 53.7561 42.8232H80.9968C81.5748 42.8232 82.1292 43.0533 82.5379 43.4628C82.9466 43.8724 83.1762 44.4278 83.1762 45.0069C83.1762 45.5861 82.9466 46.1415 82.5379 46.551C82.1292 46.9605 81.5748 47.1906 80.9968 47.1906Z" fill="#9A9A9A"/>
<path d="M80.9968 58.6545H53.7561C53.4697 58.6549 53.186 58.5987 52.9212 58.4891C52.6565 58.3795 52.4159 58.2187 52.2132 58.0159C52.0105 57.8131 51.8497 57.5723 51.74 57.3071C51.6303 57.042 51.5739 56.7578 51.5739 56.4708C51.5739 56.1838 51.6303 55.8996 51.74 55.6345C51.8497 55.3693 52.0105 55.1285 52.2132 54.9257C52.4159 54.7228 52.6565 54.5621 52.9212 54.4525C53.186 54.3429 53.4697 54.2867 53.7561 54.2871H80.9968C81.2832 54.2867 81.5669 54.3429 81.8317 54.4525C82.0964 54.5621 82.337 54.7228 82.5397 54.9257C82.7424 55.1285 82.9032 55.3693 83.0129 55.6345C83.1226 55.8996 83.179 56.1838 83.179 56.4708C83.179 56.7578 83.1226 57.042 83.0129 57.3071C82.9032 57.5723 82.7424 57.8131 82.5397 58.0159C82.337 58.2187 82.0964 58.3795 81.8317 58.4891C81.5669 58.5987 81.2832 58.6549 80.9968 58.6545Z" fill="#9A9A9A"/>
<path d="M39.779 65.1821H19.8716C19.2216 65.1814 18.5983 64.9223 18.1387 64.4618C17.679 64.0012 17.4205 63.3767 17.4198 62.7253V39.1862C17.4205 38.5349 17.679 37.9104 18.1387 37.4498C18.5983 36.9892 19.2216 36.7302 19.8716 36.7295H39.779C40.4291 36.7302 41.0523 36.9892 41.512 37.4498C41.9716 37.9104 42.2301 38.5349 42.2308 39.1862V62.7253C42.2301 63.3767 41.9716 64.0012 41.512 64.4618C41.0523 64.9223 40.4291 65.1814 39.779 65.1821Z" fill="url(#paint3_linear)"/>
<path d="M80.8074 82.1284H19.2435C18.6656 82.1284 18.1112 81.8983 17.7025 81.4888C17.2938 81.0793 17.0642 80.5238 17.0642 79.9447C17.0642 79.3655 17.2938 78.8101 17.7025 78.4006C18.1112 77.9911 18.6656 77.761 19.2435 77.761H80.8074C81.3854 77.761 81.9397 77.9911 82.3484 78.4006C82.7571 78.8101 82.9867 79.3655 82.9867 79.9447C82.9867 80.5238 82.7571 81.0793 82.3484 81.4888C81.9397 81.8983 81.3854 82.1284 80.8074 82.1284Z" fill="#696969"/>
<path d="M80.8074 93.5922H19.2435C18.6656 93.5922 18.1112 93.3621 17.7025 92.9526C17.2938 92.5431 17.0642 91.9877 17.0642 91.4085C17.0642 90.8294 17.2938 90.274 17.7025 89.8644C18.1112 89.4549 18.6656 89.2249 19.2435 89.2249H80.8074C81.3854 89.2249 81.9397 89.4549 82.3484 89.8644C82.7571 90.274 82.9867 90.8294 82.9867 91.4085C82.9867 91.9877 82.7571 92.5431 82.3484 92.9526C81.9397 93.3621 81.3854 93.5922 80.8074 93.5922Z" fill="#696969"/>
<path d="M80.8075 105.056H19.2437C18.6662 105.055 18.1126 104.825 17.7045 104.415C17.2965 104.006 17.0673 103.451 17.0673 102.872C17.0673 102.294 17.2965 101.739 17.7045 101.329C18.1126 100.92 18.6662 100.689 19.2437 100.689H80.8075C81.094 100.688 81.3777 100.744 81.6424 100.854C81.9072 100.964 82.1478 101.124 82.3504 101.327C82.5531 101.53 82.7139 101.771 82.8236 102.036C82.9333 102.301 82.9898 102.585 82.9898 102.872C82.9898 103.159 82.9333 103.443 82.8236 103.709C82.7139 103.974 82.5531 104.215 82.3504 104.417C82.1478 104.62 81.9072 104.781 81.6424 104.891C81.3777 105 81.094 105.056 80.8075 105.056Z" fill="#696969"/>
<path d="M80.8074 116.52H19.2435C18.6656 116.52 18.1112 116.29 17.7025 115.88C17.2938 115.471 17.0642 114.915 17.0642 114.336C17.0642 113.757 17.2938 113.202 17.7025 112.792C18.1112 112.383 18.6656 112.152 19.2435 112.152H80.8074C81.3854 112.152 81.9397 112.383 82.3484 112.792C82.7571 113.202 82.9867 113.757 82.9867 114.336C82.9867 114.915 82.7571 115.471 82.3484 115.88C81.9397 116.29 81.3854 116.52 80.8074 116.52Z" fill="#696969"/>
<path d="M80.8074 127.984H19.2435C18.6656 127.984 18.1112 127.754 17.7025 127.344C17.2938 126.935 17.0642 126.379 17.0642 125.8C17.0642 125.221 17.2938 124.665 17.7025 124.256C18.1112 123.846 18.6656 123.616 19.2435 123.616H80.8074C81.3854 123.616 81.9397 123.846 82.3484 124.256C82.7571 124.665 82.9867 125.221 82.9867 125.8C82.9867 126.379 82.7571 126.935 82.3484 127.344C81.9397 127.754 81.3854 127.984 80.8074 127.984Z" fill="#E5E5E5"/>
<path d="M100.545 42.1478C112.161 42.1478 121.577 32.7127 121.577 21.0739C121.577 9.43511 112.161 0 100.545 0C88.9299 0 79.5135 9.43511 79.5135 21.0739C79.5135 32.7127 88.9299 42.1478 100.545 42.1478Z" fill="url(#paint4_linear)"/>
<path d="M98.4615 29.1129C97.9883 29.1137 97.5277 28.9604 97.1491 28.6759L97.1257 28.6583L92.1829 24.8697C91.954 24.6938 91.7618 24.4745 91.6175 24.2243C91.4732 23.974 91.3794 23.6977 91.3417 23.4112C91.3039 23.1247 91.3228 22.8335 91.3974 22.5543C91.4719 22.275 91.6006 22.0133 91.7761 21.7839C91.9516 21.5545 92.1705 21.362 92.4202 21.2174C92.67 21.0728 92.9457 20.9789 93.2317 20.941C93.5176 20.9032 93.8082 20.9221 94.0869 20.9968C94.3656 21.0715 94.6268 21.2005 94.8557 21.3763L98.0573 23.8363L105.623 13.9467C105.798 13.7174 106.017 13.525 106.267 13.3804C106.516 13.2359 106.792 13.142 107.078 13.1041C107.364 13.0663 107.654 13.0853 107.933 13.1599C108.211 13.2346 108.472 13.3635 108.701 13.5393L108.702 13.5397L108.655 13.6051L108.703 13.5397C109.165 13.8953 109.467 14.4197 109.543 14.9981C109.619 15.5765 109.463 16.1616 109.109 16.6249L100.21 28.252C100.005 28.5199 99.7399 28.7367 99.437 28.8855C99.134 29.0344 98.8008 29.1113 98.4634 29.1103L98.4615 29.1129Z" fill="white"/>
<path d="M233.611 210H90.5201C90.4169 210 90.318 209.959 90.2451 209.886C90.1722 209.813 90.1312 209.714 90.1312 209.61C90.1312 209.507 90.1722 209.408 90.2451 209.335C90.318 209.262 90.4169 209.221 90.5201 209.221H233.611C233.714 209.221 233.813 209.262 233.886 209.335C233.959 209.408 234 209.507 234 209.61C234 209.714 233.959 209.813 233.886 209.886C233.813 209.959 233.714 210 233.611 210Z" fill="#3F3D56"/>
</svg>
