<svg width="52" height="52" viewBox="0 0 52 52" fill="none" xmlns="http://www.w3.org/2000/svg">
<g filter="url(#filter0_d)">
<circle cx="27" cy="25" r="13" fill="#252525"/>
</g>
<mask id="path-2-inside-1" fill="white">
<path d="M30.4047 26.0832C31.3077 26.0832 32.1738 26.4419 32.8123 27.0804C33.4508 27.7189 33.8095 28.585 33.8095 29.488C33.8095 30.391 33.4508 31.257 32.8123 31.8955C32.1738 32.534 31.3077 32.8927 30.4047 32.8927C29.5017 32.8927 28.6357 32.534 27.9972 31.8955C27.3587 31.257 27 30.391 27 29.488C27 28.585 27.3587 27.7189 27.9972 27.0804C28.6357 26.4419 29.5017 26.0832 30.4047 26.0832ZM27 17.5713C27.5943 17.5712 28.1659 17.7991 28.5972 18.2079C29.0285 18.6168 29.2866 19.1755 29.3183 19.7689L29.3214 19.8927H32.7262C32.8438 19.8928 32.957 19.9374 33.043 20.0177C33.129 20.0981 33.1812 20.208 33.1892 20.3254C33.1973 20.4427 33.1604 20.5587 33.0862 20.65C33.012 20.7412 32.9059 20.8009 32.7893 20.817L32.7262 20.8213H32.0706L31.6781 25.6697C31.3812 25.5707 31.0737 25.507 30.7619 25.4796L31.1396 20.8213H22.8604L23.6101 30.0649C23.6384 30.4137 23.797 30.7391 24.0542 30.9763C24.3115 31.2135 24.6487 31.3452 24.9986 31.3451L26.8347 31.3457C27.0124 31.6868 27.2377 31.9994 27.5014 32.2743L24.9986 32.2737C24.4154 32.2737 23.8535 32.0542 23.4247 31.6588C22.996 31.2634 22.7317 30.7211 22.6846 30.1398L21.9287 20.8213H21.2738C21.1616 20.8213 21.0532 20.7807 20.9686 20.7069C20.8841 20.6332 20.8291 20.5313 20.8138 20.4201L20.8095 20.357C20.8095 20.2448 20.8501 20.1364 20.9239 20.0519C20.9976 19.9673 21.0995 19.9123 21.2107 19.8971L21.2738 19.8927H24.6786C24.6786 19.277 24.9231 18.6866 25.3585 18.2512C25.7938 17.8159 26.3843 17.5713 27 17.5713ZM28.872 27.9552C28.814 28.0132 28.7814 28.092 28.7814 28.174C28.7814 28.2561 28.814 28.3348 28.872 28.3929L29.9671 29.4886L28.8732 30.5818C28.8151 30.6399 28.7824 30.7186 28.7824 30.8007C28.7823 30.8829 28.8149 30.9617 28.8729 31.0198C28.931 31.0779 29.0097 31.1106 29.0918 31.1107C29.174 31.1107 29.2528 31.0781 29.3109 31.0201L30.4047 29.9262L31.5005 31.0213C31.529 31.0509 31.5632 31.0745 31.6009 31.0907C31.6387 31.1069 31.6793 31.1155 31.7204 31.1158C31.7615 31.1162 31.8023 31.1083 31.8403 31.0928C31.8783 31.0772 31.9129 31.0542 31.942 31.0252C31.971 30.9961 31.994 30.9616 32.0096 30.9235C32.0251 30.8855 32.033 30.8447 32.0326 30.8036C32.0323 30.7625 32.0237 30.7219 32.0075 30.6841C31.9913 30.6464 31.9677 30.6122 31.9381 30.5837L30.843 29.488L31.9394 28.3922C31.9958 28.3339 32.0269 28.2557 32.0262 28.1745C32.0255 28.0934 31.993 28.0157 31.9356 27.9583C31.8782 27.901 31.8006 27.8684 31.7194 27.8677C31.6383 27.867 31.5601 27.8982 31.5017 27.9546L30.4054 29.0503L29.3097 27.9546C29.2516 27.8965 29.1729 27.8639 29.0908 27.8639C29.0087 27.8639 28.93 27.8965 28.872 27.9546V27.9552ZM27 18.4999C26.6471 18.4998 26.3073 18.6338 26.0493 18.8746C25.7913 19.1155 25.6344 19.4453 25.6102 19.7974L25.6071 19.8927H28.3928L28.3897 19.7974C28.3656 19.4453 28.2087 19.1155 27.9507 18.8746C27.6927 18.6338 27.3529 18.4998 27 18.4999Z"/>
</mask>
<path d="M30.4047 26.0832C31.3077 26.0832 32.1738 26.4419 32.8123 27.0804C33.4508 27.7189 33.8095 28.585 33.8095 29.488C33.8095 30.391 33.4508 31.257 32.8123 31.8955C32.1738 32.534 31.3077 32.8927 30.4047 32.8927C29.5017 32.8927 28.6357 32.534 27.9972 31.8955C27.3587 31.257 27 30.391 27 29.488C27 28.585 27.3587 27.7189 27.9972 27.0804C28.6357 26.4419 29.5017 26.0832 30.4047 26.0832ZM27 17.5713C27.5943 17.5712 28.1659 17.7991 28.5972 18.2079C29.0285 18.6168 29.2866 19.1755 29.3183 19.7689L29.3214 19.8927H32.7262C32.8438 19.8928 32.957 19.9374 33.043 20.0177C33.129 20.0981 33.1812 20.208 33.1892 20.3254C33.1973 20.4427 33.1604 20.5587 33.0862 20.65C33.012 20.7412 32.9059 20.8009 32.7893 20.817L32.7262 20.8213H32.0706L31.6781 25.6697C31.3812 25.5707 31.0737 25.507 30.7619 25.4796L31.1396 20.8213H22.8604L23.6101 30.0649C23.6384 30.4137 23.797 30.7391 24.0542 30.9763C24.3115 31.2135 24.6487 31.3452 24.9986 31.3451L26.8347 31.3457C27.0124 31.6868 27.2377 31.9994 27.5014 32.2743L24.9986 32.2737C24.4154 32.2737 23.8535 32.0542 23.4247 31.6588C22.996 31.2634 22.7317 30.7211 22.6846 30.1398L21.9287 20.8213H21.2738C21.1616 20.8213 21.0532 20.7807 20.9686 20.7069C20.8841 20.6332 20.8291 20.5313 20.8138 20.4201L20.8095 20.357C20.8095 20.2448 20.8501 20.1364 20.9239 20.0519C20.9976 19.9673 21.0995 19.9123 21.2107 19.8971L21.2738 19.8927H24.6786C24.6786 19.277 24.9231 18.6866 25.3585 18.2512C25.7938 17.8159 26.3843 17.5713 27 17.5713ZM28.872 27.9552C28.814 28.0132 28.7814 28.092 28.7814 28.174C28.7814 28.2561 28.814 28.3348 28.872 28.3929L29.9671 29.4886L28.8732 30.5818C28.8151 30.6399 28.7824 30.7186 28.7824 30.8007C28.7823 30.8829 28.8149 30.9617 28.8729 31.0198C28.931 31.0779 29.0097 31.1106 29.0918 31.1107C29.174 31.1107 29.2528 31.0781 29.3109 31.0201L30.4047 29.9262L31.5005 31.0213C31.529 31.0509 31.5632 31.0745 31.6009 31.0907C31.6387 31.1069 31.6793 31.1155 31.7204 31.1158C31.7615 31.1162 31.8023 31.1083 31.8403 31.0928C31.8783 31.0772 31.9129 31.0542 31.942 31.0252C31.971 30.9961 31.994 30.9616 32.0096 30.9235C32.0251 30.8855 32.033 30.8447 32.0326 30.8036C32.0323 30.7625 32.0237 30.7219 32.0075 30.6841C31.9913 30.6464 31.9677 30.6122 31.9381 30.5837L30.843 29.488L31.9394 28.3922C31.9958 28.3339 32.0269 28.2557 32.0262 28.1745C32.0255 28.0934 31.993 28.0157 31.9356 27.9583C31.8782 27.901 31.8006 27.8684 31.7194 27.8677C31.6383 27.867 31.5601 27.8982 31.5017 27.9546L30.4054 29.0503L29.3097 27.9546C29.2516 27.8965 29.1729 27.8639 29.0908 27.8639C29.0087 27.8639 28.93 27.8965 28.872 27.9546V27.9552ZM27 18.4999C26.6471 18.4998 26.3073 18.6338 26.0493 18.8746C25.7913 19.1155 25.6344 19.4453 25.6102 19.7974L25.6071 19.8927H28.3928L28.3897 19.7974C28.3656 19.4453 28.2087 19.1155 27.9507 18.8746C27.6927 18.6338 27.3529 18.4998 27 18.4999Z" fill="white"/>
<path d="M29.3183 19.7689L34.3168 19.644L34.315 19.5731L34.3112 19.5022L29.3183 19.7689ZM29.3214 19.8927L24.323 20.0177L24.4448 24.8927H29.3214V19.8927ZM32.7262 19.8927L32.7277 14.8927H32.7262V19.8927ZM32.7893 20.817L33.1317 25.8052L33.3018 25.7935L33.4709 25.7703L32.7893 20.817ZM32.7262 20.8213V25.8213H32.8975L33.0685 25.8096L32.7262 20.8213ZM32.0706 20.8213V15.8213H27.459L27.0869 20.4179L32.0706 20.8213ZM31.6781 25.6697L30.0977 30.4133L36.1473 32.4289L36.6618 26.0731L31.6781 25.6697ZM30.7619 25.4796L25.7783 25.0756L25.3769 30.0267L30.3252 30.4605L30.7619 25.4796ZM31.1396 20.8213L36.1232 21.2253L36.5613 15.8213H31.1396V20.8213ZM22.8604 20.8213V15.8213H17.4385L17.8768 21.2255L22.8604 20.8213ZM23.6101 30.0649L18.6264 30.4691L18.6265 30.4694L23.6101 30.0649ZM24.9986 31.3451L25.0003 26.3451H24.9978L24.9986 31.3451ZM26.8347 31.3457L31.2692 29.0359L29.8685 26.3467L26.8364 26.3457L26.8347 31.3457ZM27.5014 32.2743L27.5002 37.2743L39.2307 37.2772L31.1093 28.8126L27.5014 32.2743ZM24.9986 32.2737L24.9998 27.2737H24.9983L24.9986 32.2737ZM22.6846 30.1398L27.6683 29.7358L27.6682 29.7356L22.6846 30.1398ZM21.9287 20.8213L26.9124 20.417L26.5396 15.8213H21.9287V20.8213ZM21.2738 20.8213L21.2736 25.8213H21.2738V20.8213ZM20.8138 20.4201L15.8256 20.7625L15.8372 20.9319L15.8603 21.1001L20.8138 20.4201ZM20.8095 20.357L15.8095 20.3568L15.8095 20.5283L15.8212 20.6993L20.8095 20.357ZM21.2107 19.8971L20.8683 14.9088L20.6989 14.9204L20.5307 14.9435L21.2107 19.8971ZM21.2738 19.8927V14.8927H21.1024L20.9315 14.9045L21.2738 19.8927ZM24.6786 19.8927V24.8927H29.6786V19.8927H24.6786ZM28.872 27.9552L32.4081 31.4902L33.872 30.0258V27.9552H28.872ZM28.872 28.3929L32.4085 24.8583L32.4081 24.8579L28.872 28.3929ZM29.9671 29.4886L33.5016 33.0251L37.0382 29.4906L33.5036 25.954L29.9671 29.4886ZM28.8732 30.5818L32.4063 34.1198L32.4078 34.1183L28.8732 30.5818ZM29.3109 31.0201L32.8439 34.5581L32.8464 34.5556L29.3109 31.0201ZM30.4047 29.9262L33.9393 26.3897L30.4037 22.8562L26.8692 26.3907L30.4047 29.9262ZM31.5005 31.0213L35.0969 27.5478L35.0662 27.516L35.035 27.4848L31.5005 31.0213ZM31.9381 30.5837L28.4016 34.1182L28.4328 34.1494L28.4646 34.1801L31.9381 30.5837ZM30.843 29.488L27.3085 25.9514L23.772 29.486L27.3065 33.0225L30.843 29.488ZM31.9394 28.3922L35.4739 31.9288L35.5051 31.8976L35.5358 31.8658L31.9394 28.3922ZM31.5017 27.9546L28.0281 24.3581L27.9974 24.3878L27.9672 24.418L31.5017 27.9546ZM30.4054 29.0503L26.8698 32.5858L30.4044 36.1204L33.9399 32.5868L30.4054 29.0503ZM29.3097 27.9546L32.8452 24.419L32.8447 24.4185L29.3097 27.9546ZM28.872 27.9546L25.337 24.4185L23.872 25.8831V27.9546H28.872ZM25.6102 19.7974L20.6219 19.4552L20.6158 19.5451L20.6129 19.6351L25.6102 19.7974ZM25.6071 19.8927L20.6098 19.7305L20.4422 24.8927H25.6071V19.8927ZM28.3928 19.8927V24.8927H33.5578L33.3902 19.7305L28.3928 19.8927ZM28.3897 19.7974L33.3871 19.6352L33.3842 19.5451L33.378 19.4552L28.3897 19.7974ZM30.4047 31.0832C29.9817 31.0832 29.5759 30.9151 29.2767 30.616L36.3478 23.5449C34.7716 21.9687 32.6338 21.0832 30.4047 21.0832V31.0832ZM29.2767 30.616C28.9776 30.3168 28.8095 29.911 28.8095 29.488H38.8095C38.8095 27.2589 37.924 25.1211 36.3478 23.5449L29.2767 30.616ZM28.8095 29.488C28.8095 29.0649 28.9776 28.6591 29.2767 28.36L36.3478 35.431C37.924 33.8548 38.8095 31.717 38.8095 29.488H28.8095ZM29.2767 28.36C29.5759 28.0608 29.9817 27.8927 30.4047 27.8927V37.8927C32.6338 37.8927 34.7716 37.0072 36.3478 35.431L29.2767 28.36ZM30.4047 27.8927C30.8278 27.8927 31.2336 28.0608 31.5328 28.36L24.4617 35.431C26.0379 37.0072 28.1757 37.8927 30.4047 37.8927V27.8927ZM31.5328 28.36C31.8319 28.6591 32 29.0649 32 29.488H22C22 31.717 22.8855 33.8548 24.4617 35.431L31.5328 28.36ZM32 29.488C32 29.911 31.8319 30.3168 31.5328 30.616L24.4617 23.5449C22.8855 25.1211 22 27.2589 22 29.488H32ZM31.5328 30.616C31.2336 30.9151 30.8278 31.0832 30.4047 31.0832V21.0832C28.1757 21.0832 26.0379 21.9687 24.4617 23.5449L31.5328 30.616ZM27.0004 22.5713C26.3147 22.5714 25.6551 22.3084 25.1574 21.8367L32.037 14.5792C30.6768 13.2898 28.8738 12.5711 26.9995 12.5713L27.0004 22.5713ZM25.1574 21.8367C24.6598 21.3649 24.362 20.7203 24.3254 20.0356L34.3112 19.5022C34.2112 17.6306 33.3973 15.8686 32.037 14.5792L25.1574 21.8367ZM24.3199 19.8938L24.323 20.0177L34.3199 19.7678L34.3168 19.644L24.3199 19.8938ZM29.3214 24.8927H32.7262V14.8927H29.3214V24.8927ZM32.7246 24.8927C31.5755 24.8924 30.4692 24.4558 29.6295 23.6713L36.4565 16.3642C35.4448 15.4191 34.1122 14.8931 32.7277 14.8927L32.7246 24.8927ZM29.6295 23.6713C28.7898 22.8867 28.2792 21.8127 28.2009 20.6662L38.1776 19.9846C38.0832 18.6033 37.4681 17.3094 36.4565 16.3642L29.6295 23.6713ZM28.2009 20.6662C28.1225 19.5196 28.4823 18.3861 29.2075 17.4947L36.9648 23.8053C37.8385 22.7314 38.272 21.3658 38.1776 19.9846L28.2009 20.6662ZM29.2075 17.4947C29.9328 16.6032 30.9693 16.0203 32.1078 15.8636L33.4709 25.7703C34.8424 25.5816 36.0912 24.8793 36.9648 23.8053L29.2075 17.4947ZM32.447 15.8287L32.3838 15.833L33.0685 25.8096L33.1317 25.8052L32.447 15.8287ZM32.7262 15.8213H32.0706V25.8213H32.7262V15.8213ZM27.0869 20.4179L26.6944 25.2662L36.6618 26.0731L37.0543 21.2247L27.0869 20.4179ZM33.2586 20.926C32.591 20.7036 31.8996 20.5602 31.1987 20.4987L30.3252 30.4605C30.2478 30.4537 30.1714 30.4379 30.0977 30.4133L33.2586 20.926ZM35.7456 25.8836L36.1232 21.2253L26.1559 20.4173L25.7783 25.0756L35.7456 25.8836ZM31.1396 15.8213H22.8604V25.8213H31.1396V15.8213ZM17.8768 21.2255L18.6264 30.4691L28.5937 29.6607L27.8441 20.4171L17.8768 21.2255ZM18.6265 30.4694C18.7564 32.0702 19.4842 33.5636 20.665 34.6523L27.4435 27.3003C28.1098 27.9146 28.5204 28.7572 28.5937 29.6605L18.6265 30.4694ZM20.665 34.6523C21.8459 35.741 23.3933 36.3454 24.9994 36.3451L24.9978 26.3451C25.904 26.3449 26.7772 26.6859 27.4435 27.3003L20.665 34.6523ZM24.9969 36.3451L26.833 36.3457L26.8364 26.3457L25.0003 26.3451L24.9969 36.3451ZM22.4002 33.6555C22.7995 34.4221 23.3043 35.1218 23.8935 35.7359L31.1093 28.8126C31.1711 28.8771 31.2252 28.9515 31.2692 29.0359L22.4002 33.6555ZM27.5027 27.2743L24.9998 27.2737L24.9974 37.2737L27.5002 37.2743L27.5027 27.2743ZM24.9983 27.2737C25.6712 27.2736 26.3196 27.5269 26.8143 27.9831L20.0352 35.3345C21.3874 36.5815 23.1595 37.2738 24.999 37.2737L24.9983 27.2737ZM26.8143 27.9831C27.309 28.4393 27.6139 29.065 27.6683 29.7358L17.701 30.5438C17.8496 32.3772 18.6829 34.0876 20.0352 35.3345L26.8143 27.9831ZM27.6682 29.7356L26.9124 20.417L16.9451 21.2255L17.701 30.5441L27.6682 29.7356ZM21.9287 15.8213H21.2738V25.8213H21.9287V15.8213ZM21.274 15.8213C22.3701 15.8213 23.429 16.2183 24.2551 16.9387L17.6822 24.4751C18.6774 25.343 19.9531 25.8212 21.2736 25.8213L21.274 15.8213ZM24.2551 16.9387C25.0811 17.6591 25.6183 18.6543 25.7674 19.7401L15.8603 21.1001C16.0399 22.4083 16.6871 23.6072 17.6822 24.4751L24.2551 16.9387ZM25.8021 20.0778L25.7978 20.0147L15.8212 20.6993L15.8256 20.7625L25.8021 20.0778ZM25.8095 20.3572C25.8095 21.4533 25.4125 22.5122 24.6921 23.3383L17.1557 16.7654C16.2878 17.7606 15.8096 19.0363 15.8095 20.3568L25.8095 20.3572ZM24.6921 23.3383C23.9717 24.1643 22.9765 24.7015 21.8907 24.8506L20.5307 14.9435C19.2225 15.1231 18.0236 15.7703 17.1557 16.7654L24.6921 23.3383ZM21.553 24.8853L21.6161 24.881L20.9315 14.9045L20.8683 14.9088L21.553 24.8853ZM21.2738 24.8927H24.6786V14.8927H21.2738V24.8927ZM29.6786 19.8927C29.6786 20.6031 29.3964 21.2844 28.894 21.7868L21.823 14.7157C20.4499 16.0887 19.6786 17.951 19.6786 19.8927H29.6786ZM28.894 21.7868C28.3917 22.2891 27.7104 22.5713 27 22.5713V12.5713C25.0582 12.5713 23.196 13.3427 21.823 14.7157L28.894 21.7868ZM25.3359 24.4202C24.3405 25.4159 23.7814 26.7661 23.7814 28.174H33.7814C33.7814 29.4178 33.2874 30.6106 32.4081 31.4902L25.3359 24.4202ZM23.7814 28.174C23.7814 29.5819 24.3405 30.9322 25.3359 31.9279L32.4081 24.8579C33.2874 25.7375 33.7814 26.9303 33.7814 28.174H23.7814ZM25.3355 31.9274L26.4305 33.0231L33.5036 25.954L32.4085 24.8583L25.3355 31.9274ZM26.4325 25.952L25.3387 27.0453L32.4078 34.1183L33.5016 33.0251L26.4325 25.952ZM25.3402 27.0438C24.3437 28.0389 23.7834 29.389 23.7824 30.7972L33.7824 30.8043C33.7815 32.0482 33.2865 33.2408 32.4063 34.1198L25.3402 27.0438ZM23.7824 30.7972C23.7814 32.2054 24.3398 33.5563 25.3349 34.5528L32.4109 27.4868C33.29 28.367 33.7832 29.5604 33.7824 30.8043L23.7824 30.7972ZM25.3349 34.5528C26.3299 35.5493 27.6801 36.1097 29.0883 36.1106L29.0954 26.1107C30.3393 26.1115 31.532 26.6065 32.4109 27.4868L25.3349 34.5528ZM29.0883 36.1106C30.4965 36.1116 31.8475 35.5532 32.8439 34.5581L25.7779 27.4821C26.6581 26.6031 27.8514 26.1098 29.0954 26.1107L29.0883 36.1106ZM32.8464 34.5556L33.9403 33.4618L26.8692 26.3907L25.7754 27.4846L32.8464 34.5556ZM26.8702 33.4628L27.9659 34.5579L35.035 27.4848L33.9393 26.3897L26.8702 33.4628ZM27.904 34.4949C28.3938 35.002 28.9797 35.4065 29.6275 35.6848L33.5744 26.4966C34.1467 26.7425 34.6642 27.0998 35.0969 27.5478L27.904 34.4949ZM29.6275 35.6848C30.2752 35.963 30.9719 36.1095 31.677 36.1156L31.7639 26.116C32.3867 26.1214 33.0022 26.2508 33.5744 26.4966L29.6275 35.6848ZM31.677 36.1156C32.3819 36.1218 33.0811 35.9874 33.7336 35.7204L29.947 26.4651C30.5234 26.2293 31.1411 26.1106 31.7639 26.116L31.677 36.1156ZM33.7336 35.7204C34.3861 35.4535 34.979 35.0593 35.4775 34.5607L28.4064 27.4896C28.8469 27.0492 29.3706 26.7009 29.947 26.4651L33.7336 35.7204ZM35.4775 34.5607C35.976 34.0622 36.3703 33.4693 36.6372 32.8168L27.3819 29.0302C27.6177 28.4538 27.966 27.9301 28.4064 27.4896L35.4775 34.5607ZM36.6372 32.8168C36.9042 32.1643 37.0385 31.4652 37.0324 30.7602L27.0328 30.8471C27.0274 30.2243 27.1461 29.6066 27.3819 29.0302L36.6372 32.8168ZM37.0324 30.7602C37.0263 30.0551 36.8798 29.3584 36.6016 28.7107L27.4134 32.6576C27.1676 32.0854 27.0382 31.4699 27.0328 30.8471L37.0324 30.7602ZM36.6016 28.7107C36.3233 28.0629 35.9188 27.477 35.4117 26.9872L28.4646 34.1801C28.0166 33.7474 27.6593 33.2299 27.4134 32.6576L36.6016 28.7107ZM35.4747 27.0491L34.3796 25.9534L27.3065 33.0225L28.4016 34.1182L35.4747 27.0491ZM34.3776 33.0245L35.4739 31.9288L28.4048 24.8557L27.3085 25.9514L34.3776 33.0245ZM35.5358 31.8658C36.503 30.8644 37.0382 29.5232 37.0261 28.1311L27.0264 28.218C27.0157 26.9881 27.4885 25.8033 28.3429 24.9187L35.5358 31.8658ZM37.0261 28.1311C37.014 26.739 36.4556 25.4073 35.4711 24.4228L28.4001 31.4939C27.5304 30.6242 27.0371 29.4478 27.0264 28.218L37.0261 28.1311ZM35.4711 24.4228C34.4867 23.4384 33.155 22.88 31.7629 22.8679L31.676 32.8675C30.4462 32.8568 29.2697 32.3635 28.4001 31.4939L35.4711 24.4228ZM31.7629 22.8679C30.3707 22.8558 29.0295 23.391 28.0281 24.3581L34.9753 31.551C34.0906 32.4054 32.9058 32.8782 31.676 32.8675L31.7629 22.8679ZM27.9672 24.418L26.8708 25.5138L33.9399 32.5868L35.0362 31.4911L27.9672 24.418ZM33.9409 25.5148L32.8452 24.419L25.7741 31.4901L26.8698 32.5858L33.9409 25.5148ZM32.8447 24.4185C31.849 23.4231 30.4987 22.8639 29.0908 22.8639V32.8639C27.847 32.8639 26.6542 32.3699 25.7747 31.4906L32.8447 24.4185ZM29.0908 22.8639C27.6829 22.8639 26.3326 23.4231 25.337 24.4185L32.407 31.4906C31.5274 32.3699 30.3346 32.8639 29.0908 32.8639V22.8639ZM23.872 27.9546V27.9552H33.872V27.9546H23.872ZM27.0006 13.4999C25.3807 13.4997 23.8212 14.1144 22.6371 15.2199L29.4615 22.5293C28.7934 23.1531 27.9134 23.5 26.9994 23.4999L27.0006 13.4999ZM22.6371 15.2199C21.4531 16.3253 20.7328 17.8391 20.6219 19.4552L30.5985 20.1396C30.5359 21.0515 30.1295 21.9056 29.4615 22.5293L22.6371 15.2199ZM20.6129 19.6351L20.6098 19.7305L30.6045 20.055L30.6076 19.9596L20.6129 19.6351ZM25.6071 24.8927H28.3928V14.8927H25.6071V24.8927ZM33.3902 19.7305L33.3871 19.6352L23.3924 19.9596L23.3955 20.0549L33.3902 19.7305ZM33.378 19.4552C33.2672 17.8391 32.5469 16.3253 31.3629 15.2199L24.5385 22.5293C23.8704 21.9056 23.464 21.0515 23.4015 20.1396L33.378 19.4552ZM31.3629 15.2199C30.1788 14.1144 28.6193 13.4997 26.9994 13.4999L27.0006 23.4999C26.0866 23.5 25.2066 23.1531 24.5385 22.5293L31.3629 15.2199Z" fill="white" mask="url(#path-2-inside-1)"/>
<defs>
<filter id="filter0_d" x="0" y="0" width="52" height="52" filterUnits="userSpaceOnUse" color-interpolation-filters="sRGB">
<feFlood flood-opacity="0" result="BackgroundImageFix"/>
<feColorMatrix in="SourceAlpha" type="matrix" values="0 0 0 0 0 0 0 0 0 0 0 0 0 0 0 0 0 0 127 0" result="hardAlpha"/>
<feOffset dx="-1" dy="1"/>
<feGaussianBlur stdDeviation="6.5"/>
<feColorMatrix type="matrix" values="0 0 0 0 0 0 0 0 0 0 0 0 0 0 0 0 0 0 0.1 0"/>
<feBlend mode="normal" in2="BackgroundImageFix" result="effect1_dropShadow"/>
<feBlend mode="normal" in="SourceGraphic" in2="effect1_dropShadow" result="shape"/>
</filter>
</defs>
</svg>
