<svg width="26" height="26" viewBox="0 0 26 26" fill="none" xmlns="http://www.w3.org/2000/svg">
<path d="M13 26C20.1797 26 26 20.1797 26 13C26 5.8203 20.1797 0 13 0C5.8203 0 0 5.8203 0 13C0 20.1797 5.8203 26 13 26Z" fill="#252525"/>
<path d="M11.7118 17.9592C11.4193 17.9596 11.1346 17.865 10.9007 17.6896L10.8861 17.6787L7.83097 15.3416C7.68948 15.2331 7.57072 15.0978 7.48151 14.9434C7.39229 14.7891 7.33435 14.6186 7.31101 14.4419C7.28766 14.2651 7.29936 14.0855 7.34543 13.9133C7.39151 13.741 7.47105 13.5795 7.57953 13.438C7.68801 13.2965 7.8233 13.1778 7.97767 13.0886C8.13204 12.9994 8.30246 12.9414 8.47922 12.9181C8.65598 12.8947 8.83562 12.9064 9.00786 12.9525C9.1801 12.9986 9.34157 13.0781 9.48307 13.1866L11.462 14.7041L16.1382 8.60345C16.2466 8.46201 16.3819 8.34331 16.5362 8.25413C16.6905 8.16495 16.8609 8.10705 17.0375 8.08371C17.2142 8.06037 17.3938 8.07206 17.5659 8.11811C17.7381 8.16417 17.8995 8.24368 18.041 8.35212L18.0414 8.35242L18.0123 8.39271L18.0421 8.35242C18.3275 8.57172 18.5142 8.89527 18.5612 9.25206C18.6083 9.60886 18.5119 9.96975 18.2932 10.2555L12.7929 17.4281C12.6656 17.5933 12.502 17.727 12.3148 17.8189C12.1275 17.9107 11.9216 17.9581 11.713 17.9575L11.7118 17.9592Z" fill="white"/>
</svg>
