<svg width="28" height="20" viewBox="0 0 28 20" fill="none" xmlns="http://www.w3.org/2000/svg">
<path d="M22.7294 8.33333C22.8941 7.83333 23.0588 7.33333 23.0588 6.66667C23.0588 3 20.0941 0 16.4706 0C14 0 11.6941 1.5 10.7059 3.66667C10.2118 3.5 9.55294 3.33333 9.05882 3.33333C6.75294 3.33333 4.94118 5.16667 4.94118 7.5C4.94118 7.83333 4.94118 8.16667 5.10588 8.33333C2.14118 8.83333 0 11.1667 0 14.1667C0 17.3333 2.63529 20 5.76471 20H22.2353C25.3647 20 28 17.3333 28 14.1667C28 11.1667 25.6941 8.66667 22.7294 8.33333ZM12.3529 18.1667L7.08235 12.8333L9.38824 10.5L12.3529 13.5L18.6118 7.16667L20.9176 9.5L12.3529 18.1667Z" fill="#252525"/>
</svg>
