<svg width="28" height="33" viewBox="0 0 28 33" fill="none" xmlns="http://www.w3.org/2000/svg">
<path d="M20.2976 18.006C22.2078 18.006 24.0398 18.7648 25.3905 20.1155C26.7412 21.4662 27.5 23.2981 27.5 25.2083C27.5 27.1185 26.7412 28.9505 25.3905 30.3012C24.0398 31.6519 22.2078 32.4107 20.2976 32.4107C18.3874 32.4107 16.5555 31.6519 15.2048 30.3012C13.8541 28.9505 13.0952 27.1185 13.0952 25.2083C13.0952 23.2981 13.8541 21.4662 15.2048 20.1155C16.5555 18.7648 18.3874 18.006 20.2976 18.006ZM13.0952 1.987e-08C14.3524 -0.000112999 15.5617 0.481908 16.4741 1.34677C17.3864 2.21163 17.9324 3.39346 17.9994 4.64881L18.006 4.91071H25.2083C25.4572 4.91079 25.6967 5.00532 25.8785 5.1752C26.0604 5.34508 26.1709 5.57765 26.1879 5.82591C26.2049 6.07418 26.1269 6.31962 25.9699 6.51265C25.8129 6.70569 25.5884 6.83191 25.3419 6.86583L25.2083 6.875H23.8215L22.9913 17.1312C22.3632 16.9219 21.7127 16.787 21.0532 16.7292L21.852 6.875H4.33845L5.92429 26.4288C5.98417 27.1667 6.31959 27.8549 6.86384 28.3567C7.40809 28.8585 8.12128 29.137 8.86155 29.1369L12.7456 29.1382C13.1214 29.8598 13.5981 30.5211 14.156 31.1025L8.86155 31.1012C7.62777 31.1013 6.43917 30.6369 5.53217 29.8006C4.62517 28.9642 4.06624 27.817 3.96655 26.5873L2.36762 6.875H0.982143C0.744808 6.87499 0.515505 6.78904 0.336639 6.63304C0.157773 6.47705 0.0414442 6.26156 0.00916663 6.02643L0 5.89286C1.00086e-05 5.65552 0.0859609 5.42622 0.241957 5.24735C0.397953 5.06849 0.613441 4.95216 0.848571 4.91988L0.982143 4.91071H8.18452C8.18452 3.60831 8.7019 2.35925 9.62284 1.43831C10.5438 0.517377 11.7928 1.987e-08 13.0952 1.987e-08ZM17.0552 21.966C16.9325 22.0887 16.8635 22.2553 16.8635 22.4289C16.8635 22.6025 16.9325 22.769 17.0552 22.8918L19.3718 25.2096L17.0579 27.5223C16.9349 27.645 16.8658 27.8116 16.8656 27.9854C16.8655 28.1591 16.9344 28.3258 17.0572 28.4488C17.18 28.5717 17.3466 28.6408 17.5203 28.641C17.6941 28.6411 17.8607 28.5722 17.9837 28.4494L20.2976 26.1355L22.6155 28.452C22.6759 28.5146 22.7481 28.5644 22.828 28.5988C22.9079 28.6331 22.9938 28.6511 23.0807 28.6519C23.1677 28.6526 23.2539 28.6361 23.3344 28.6032C23.4148 28.5702 23.4879 28.5216 23.5494 28.4601C23.6109 28.3987 23.6595 28.3256 23.6924 28.2451C23.7254 28.1646 23.7419 28.0784 23.7412 27.9915C23.7404 27.9045 23.7224 27.8186 23.688 27.7387C23.6537 27.6588 23.6038 27.5866 23.5413 27.5262L21.2248 25.2083L23.5439 22.8905C23.6632 22.767 23.7292 22.6016 23.7277 22.4299C23.7262 22.2582 23.6574 22.094 23.536 21.9726C23.4146 21.8512 23.2503 21.7824 23.0787 21.7809C22.907 21.7794 22.7416 21.8454 22.6181 21.9646L20.2989 24.2825L17.9811 21.9646C17.8583 21.8419 17.6918 21.7729 17.5182 21.7729C17.3445 21.7729 17.178 21.8419 17.0552 21.9646V21.966ZM13.0952 1.96429C12.3486 1.96419 11.6299 2.24753 11.0841 2.75703C10.5384 3.26653 10.2065 3.9642 10.1554 4.70905L10.1488 4.91071H16.0417L16.0351 4.70905C15.984 3.9642 15.6521 3.26653 15.1063 2.75703C14.5606 2.24753 13.8418 1.96419 13.0952 1.96429Z" fill="#B50000"/>
</svg>
