<svg width="34" height="34" viewBox="0 0 34 34" fill="none" xmlns="http://www.w3.org/2000/svg">
<path d="M1.43608 3.6193C1.48894 2.6418 1.91613 1.72168 2.62969 1.04839C3.34324 0.375103 4.28886 -0.000111315 5.27185 2.4772e-08H7.24862C8.23131 0.000323665 9.1765 0.375732 9.8897 1.04898C10.6029 1.72222 11.0298 2.64209 11.0827 3.6193L12.5132 29.9693C12.5413 30.4881 12.4629 31.0071 12.2829 31.4947C12.1029 31.9823 11.8251 32.4283 11.4663 32.8055C11.1075 33.1827 10.6754 33.4831 10.1962 33.6885C9.717 33.8938 9.20082 33.9998 8.67914 34H3.84133C3.3195 34.0001 2.80314 33.8942 2.32375 33.689C1.84436 33.4837 1.412 33.1833 1.05305 32.8061C0.694102 32.4289 0.416097 31.9828 0.236001 31.4951C0.0559049 31.0074 -0.0225042 30.4882 0.00555829 29.9693L1.43608 3.6193ZM5.27185 2.55C4.94409 2.54997 4.62881 2.67512 4.39094 2.89967C4.15307 3.12422 4.01074 3.43107 3.99326 3.757L2.56274 30.107C2.55346 30.2801 2.5797 30.4532 2.63987 30.6158C2.70005 30.7785 2.79288 30.9272 2.9127 31.0529C3.03253 31.1785 3.17683 31.2786 3.33678 31.3469C3.49674 31.4152 3.669 31.4502 3.84303 31.45H8.67914C8.85289 31.4498 9.02477 31.4144 9.18433 31.3459C9.34389 31.2774 9.48777 31.1773 9.60723 31.0516C9.72669 30.926 9.81922 30.7774 9.87918 30.615C9.93915 30.4526 9.96529 30.2798 9.95603 30.107L8.52721 3.757C8.50972 3.43077 8.36715 3.12368 8.12891 2.89908C7.89068 2.67449 7.57497 2.54954 7.24692 2.55H5.27355H5.27185Z" fill="#9A9A9A"/>
<path d="M12.6825 34H30.1594C31.1781 34 32.155 33.597 32.8753 32.8797C33.5956 32.1624 34.0003 31.1895 34.0003 30.175V6.80001C34.0005 6.54985 33.9268 6.30517 33.7883 6.09644C33.6499 5.8877 33.4528 5.72413 33.2218 5.62609C32.9907 5.52805 32.7357 5.49988 32.4886 5.54508C32.2416 5.59029 32.0133 5.70687 31.8323 5.88031L23.3312 14.008V6.80001C23.3314 6.55776 23.2624 6.32044 23.1322 6.11584C23.0019 5.91124 22.8159 5.74783 22.5957 5.64473C22.3756 5.54163 22.1305 5.50312 21.8892 5.5337C21.6479 5.56428 21.4204 5.66269 21.2332 5.81741L13.268 12.3828L13.4404 15.5516L20.7706 9.50981V17C20.7704 17.2502 20.8441 17.4948 20.9825 17.7036C21.121 17.9123 21.318 18.0759 21.5491 18.1739C21.7802 18.272 22.0351 18.3001 22.2822 18.2549C22.5293 18.2097 22.7575 18.0932 22.9385 17.9197L31.4397 9.79201V30.175C31.4397 30.5132 31.3048 30.8375 31.0647 31.0766C30.8246 31.3157 30.499 31.45 30.1594 31.45H28.4523V23.8C28.4523 23.011 28.1376 22.2543 27.5774 21.6964C27.0171 21.1384 26.2573 20.825 25.465 20.825H18.6367C17.8444 20.825 17.0846 21.1384 16.5243 21.6964C15.9641 22.2543 15.6494 23.011 15.6494 23.8V31.45H14.0789C13.8503 32.4089 13.3682 33.2894 12.6825 34ZM25.8917 23.8V31.025H18.21V23.8C18.21 23.6873 18.2549 23.5792 18.335 23.4995C18.415 23.4198 18.5235 23.375 18.6367 23.375H25.465C25.5782 23.375 25.6867 23.4198 25.7667 23.4995C25.8468 23.5792 25.8917 23.6873 25.8917 23.8Z" fill="#9A9A9A"/>
</svg>
