<svg width="331" height="288" viewBox="0 0 331 288" fill="none" xmlns="http://www.w3.org/2000/svg">
<path d="M330.832 284.43L94.0069 288L0 271.339H146.758L330.832 284.43Z" fill="#00A055"/>
<path d="M272.718 75.7682C293.641 75.7682 310.602 58.8069 310.602 37.8841C310.602 16.9613 293.641 0 272.718 0C251.795 0 234.834 16.9613 234.834 37.8841C234.834 58.8069 251.795 75.7682 272.718 75.7682Z" fill="#FF6584"/>
<path d="M67.0186 273.319C67.0186 273.319 67.5727 261.707 78.9328 263.057L67.0186 273.319Z" fill="#3F3D56"/>
<path d="M63.8072 262.268C66.9473 262.268 69.4928 259.723 69.4928 256.583C69.4928 253.443 66.9473 250.897 63.8072 250.897C60.6671 250.897 58.1216 253.443 58.1216 256.583C58.1216 259.723 60.6671 262.268 63.8072 262.268Z" fill="url(#paint0_linear)"/>
<path d="M64.4877 266.158H62.8828V277.393H64.4877V266.158Z" fill="#3F3D56"/>
<path d="M254.257 275.301C254.257 275.301 254.811 263.689 266.171 265.039L254.257 275.301Z" fill="#3F3D56"/>
<path d="M251.046 264.251C254.186 264.251 256.731 261.705 256.731 258.565C256.731 255.425 254.186 252.879 251.046 252.879C247.905 252.879 245.36 255.425 245.36 258.565C245.36 261.705 247.905 264.251 251.046 264.251Z" fill="url(#paint1_linear)"/>
<path d="M251.726 268.14H250.121V279.375H251.726V268.14Z" fill="#3F3D56"/>
<path d="M281.63 277.284C281.63 277.284 282.184 265.673 293.544 267.022L281.63 277.284Z" fill="#3F3D56"/>
<path d="M278.42 266.236C281.56 266.236 284.105 263.69 284.105 260.55C284.105 257.41 281.56 254.865 278.42 254.865C275.279 254.865 272.734 257.41 272.734 260.55C272.734 263.69 275.279 266.236 278.42 266.236Z" fill="url(#paint2_linear)"/>
<path d="M279.1 270.123H277.495V281.357H279.1V270.123Z" fill="#3F3D56"/>
<path d="M111.843 267.764C111.843 267.764 112.397 256.153 123.757 257.503L111.843 267.764Z" fill="#3F3D56"/>
<path d="M108.636 256.714C111.776 256.714 114.322 254.168 114.322 251.028C114.322 247.888 111.776 245.343 108.636 245.343C105.496 245.343 102.951 247.888 102.951 251.028C102.951 254.168 105.496 256.714 108.636 256.714Z" fill="url(#paint3_linear)"/>
<path d="M109.313 260.604H107.708V271.838H109.313V260.604Z" fill="#3F3D56"/>
<path d="M27.3511 269.747C27.3511 269.747 27.9052 258.135 39.2653 259.485L27.3511 269.747Z" fill="#3F3D56"/>
<path d="M24.1392 258.697C27.2793 258.697 29.8249 256.151 29.8249 253.011C29.8249 249.871 27.2793 247.326 24.1392 247.326C20.9992 247.326 18.4536 249.871 18.4536 253.011C18.4536 256.151 20.9992 258.697 24.1392 258.697Z" fill="url(#paint4_linear)"/>
<path d="M24.8193 262.586H23.2144V273.821H24.8193V262.586Z" fill="#3F3D56"/>
<path d="M164.817 249.572C199.029 249.572 226.763 221.838 226.763 187.626C226.763 153.415 199.029 125.681 164.817 125.681C130.606 125.681 102.872 153.415 102.872 187.626C102.872 221.838 130.606 249.572 164.817 249.572Z" fill="#3F3D56"/>
<path d="M125.818 192.596C127.357 190.754 129.281 189.272 131.455 188.256C133.629 187.239 135.999 186.712 138.399 186.712C140.799 186.712 143.169 187.239 145.343 188.256C147.517 189.272 149.441 190.754 150.98 192.596C153.612 190.082 155.432 186.839 156.204 183.282C156.976 179.725 156.665 176.019 155.311 172.641C153.958 169.262 151.623 166.367 148.609 164.327C145.594 162.288 142.038 161.198 138.399 161.198C134.76 161.198 131.204 162.288 128.189 164.327C125.175 166.367 122.84 169.262 121.487 172.641C120.133 176.019 119.822 179.725 120.594 183.282C121.366 186.839 123.186 190.082 125.818 192.596Z" fill="white"/>
<path d="M175.011 192.595C176.549 190.754 178.473 189.272 180.647 188.256C182.821 187.239 185.192 186.712 187.591 186.712C189.991 186.712 192.362 187.239 194.536 188.256C196.709 189.272 198.634 190.754 200.172 192.595C202.804 190.082 204.624 186.839 205.396 183.282C206.168 179.725 205.857 176.019 204.504 172.641C203.15 169.262 200.816 166.367 197.801 164.327C194.787 162.288 191.231 161.198 187.591 161.198C183.952 161.198 180.396 162.288 177.382 164.327C174.367 166.367 172.033 169.262 170.679 172.641C169.326 176.019 169.015 179.725 169.787 183.282C170.559 186.839 172.378 190.082 175.011 192.595Z" fill="white"/>
<path d="M132.182 179.48C135.644 179.48 138.45 176.674 138.45 173.213C138.45 169.752 135.644 166.946 132.182 166.946C128.721 166.946 125.915 169.752 125.915 173.213C125.915 176.674 128.721 179.48 132.182 179.48Z" fill="#3F3D56"/>
<path d="M181.372 179.48C184.834 179.48 187.639 176.674 187.639 173.213C187.639 169.752 184.834 166.946 181.372 166.946C177.911 166.946 175.105 169.752 175.105 173.213C175.105 176.674 177.911 179.48 181.372 179.48Z" fill="#3F3D56"/>
<path d="M120.18 210.399C124.205 210.399 127.468 207.136 127.468 203.111C127.468 199.086 124.205 195.823 120.18 195.823C116.155 195.823 112.893 199.086 112.893 203.111C112.893 207.136 116.155 210.399 120.18 210.399Z" fill="#FF6584"/>
<path d="M203.99 210.399C208.015 210.399 211.278 207.136 211.278 203.111C211.278 199.086 208.015 195.823 203.99 195.823C199.965 195.823 196.702 199.086 196.702 203.111C196.702 207.136 199.965 210.399 203.99 210.399Z" fill="#FF6584"/>
<path d="M162.082 188.536L156.617 212.221L165.726 203.112L162.082 188.536Z" fill="#FF6584"/>
<path d="M190.167 279.633L183.961 274.425L184.106 279.633H182.178L182.024 274.126L173.646 279.633H170.139L181.962 271.862L181.504 255.543L181.162 243.219L183.084 243.167L183.431 255.543L183.889 271.847L193.163 279.633H190.167Z" fill="#3F3D56"/>
<path d="M161.014 279.633L154.809 274.425L154.953 279.633H153.031L152.877 274.126L144.499 279.633H140.991L152.81 271.862L152.352 255.543L152.01 243.219L153.937 243.167L154.284 255.543L154.737 271.847L164.011 279.633H161.014Z" fill="#3F3D56"/>
<path d="M165.726 121.122C164.026 121.122 162.527 122.442 161.524 124.47C160.641 121.421 158.784 119.3 156.616 119.3C156.469 119.315 156.323 119.339 156.179 119.374C155.345 116.118 153.408 113.834 151.15 113.834C148.132 113.834 145.685 117.913 145.685 122.944C145.685 127.975 148.132 132.054 151.15 132.054C151.298 132.039 151.444 132.015 151.588 131.98C152.421 135.236 154.358 137.52 156.616 137.52C158.316 137.52 159.815 136.199 160.818 134.171C161.701 137.221 163.558 139.341 165.726 139.341C168.744 139.341 171.192 135.263 171.192 130.232C171.192 125.201 168.744 121.122 165.726 121.122Z" fill="#3F3D56"/>
<path d="M106.672 211.099C104.279 211.099 101.91 210.628 99.6997 209.712C97.4892 208.797 95.4807 207.455 93.7889 205.763C92.0971 204.071 90.755 202.063 89.8394 199.852C88.9238 197.642 88.4526 195.272 88.4526 192.88V183.77C88.4526 178.938 90.3721 174.304 93.7889 170.887C97.2057 167.47 101.84 165.551 106.672 165.551V211.099Z" fill="url(#paint5_linear)"/>
<path d="M222.959 165.551C225.352 165.551 227.721 166.022 229.931 166.938C232.142 167.853 234.15 169.195 235.842 170.887C237.534 172.579 238.876 174.587 239.791 176.798C240.707 179.008 241.178 181.377 241.178 183.77V192.88C241.178 195.272 240.707 197.642 239.791 199.852C238.876 202.062 237.534 204.071 235.842 205.763C234.15 207.455 232.142 208.797 229.931 209.712C227.721 210.628 225.352 211.099 222.959 211.099V165.551H222.959Z" fill="url(#paint6_linear)"/>
<path d="M63.927 129.488L63.9275 129.487L62.5694 128.921L56.8393 126.499L54.7853 125.63L54.6277 126.028L51.8687 132.995L59.6336 136.281L59.6743 136.318L59.1511 137.552C59.0794 137.665 59.0183 137.784 58.9685 137.908C58.602 138.834 59.2943 139.754 59.9487 140.013C60.6031 140.272 61.4309 139.732 61.7974 138.807C62.159 137.894 61.8056 136.734 61.1678 136.454L61.1684 136.453L59.8103 135.887L55.1646 134.081L57.8191 127.379L57.4256 127.223L54.7702 133.928L54.1957 133.705L56.8615 126.974L56.9317 127.003L62.3927 129.315L62.4334 129.352L61.9102 130.586C61.8385 130.698 61.7774 130.818 61.7276 130.942C61.361 131.867 62.0533 132.788 62.7078 133.047C63.3622 133.306 64.1899 132.766 64.5565 131.84C64.918 130.928 64.5647 129.768 63.927 129.488Z" fill="#3F3D56"/>
<path d="M90.8045 146.589C87.9857 144.977 88.5497 141.441 88.5497 141.441C88.4788 139.143 86.5806 139.468 86.5806 139.468L85.8898 139.626C85.5689 139.477 85.2155 139.412 84.8625 139.436L83.8116 139.613C86.2046 140.175 86.008 142.177 86.008 142.177L86.3432 144.517L80.073 141.988L80.7929 140.291C80.8924 140.134 80.9773 139.968 81.0465 139.796C81.5556 138.51 80.5941 137.232 79.6851 136.872C78.7762 136.512 77.6266 137.262 77.1174 138.548C76.6153 139.815 77.1061 141.426 77.9918 141.815L77.9911 141.817L79.8773 142.602L79.8914 142.558L90.8045 146.589ZM87.6204 142.476L87.8214 144.717C87.1115 143.72 86.7779 142.505 86.8802 141.286C86.8635 140.852 86.7172 140.433 86.4602 140.084C86.8553 140.337 87.1728 140.694 87.3775 141.116C87.5822 141.539 87.6663 142.009 87.6204 142.476V142.476Z" fill="#3F3D56"/>
<path d="M42.9728 113.457L42.9736 113.455L41.0873 112.67L33.204 109.605L35.1937 107.835C35.583 107.316 36.1578 106.968 36.7979 106.863C37.438 106.758 38.0939 106.905 38.6284 107.272L38.011 106.355C38.011 106.355 36.8502 104.818 35.2254 106.444C35.2254 106.444 33.215 109.408 30.0571 108.652L40.8419 113.217L40.8985 113.268L40.1717 114.982C40.0722 115.138 39.9873 115.304 39.9181 115.476C39.4091 116.762 40.3706 118.04 41.2795 118.4C42.1885 118.76 43.3381 118.01 43.8472 116.724C44.3493 115.457 43.8586 113.846 42.9728 113.457Z" fill="#3F3D56"/>
<path d="M71.836 103.426L71.1092 105.14C71.0097 105.297 70.9248 105.462 70.8556 105.634C70.3465 106.92 71.3081 108.198 72.217 108.558C73.126 108.919 74.2756 108.168 74.7847 106.883C75.2869 105.615 74.7961 104.004 73.9103 103.615L73.9111 103.614L72.0249 102.828L65.5723 100.32L69.2591 91.0108L68.7127 90.7944L65.0245 100.107L64.2266 99.7966L67.9292 90.4479L68.0267 90.4892L75.6114 93.6994L75.668 93.7507L74.9413 95.4642C74.8418 95.621 74.7569 95.7865 74.6877 95.9588C74.1786 97.2443 75.1401 98.5228 76.0491 98.8828C76.958 99.2429 78.1077 98.4926 78.6168 97.2072C79.1189 95.9393 78.6282 94.3285 77.7424 93.9394L77.7431 93.9378L75.8569 93.1523L68.1487 89.8938L68.1483 89.8936L67.8983 89.788L65.0456 88.582L60.9946 98.8104L71.7793 103.375L71.836 103.426Z" fill="#3F3D56"/>
<path d="M37.6594 51.0429L37.6607 51.0403L34.4137 49.6881L20.843 44.4127L24.2681 41.3654C24.2681 41.3654 26.5464 38.2042 30.1807 40.3968L29.1179 38.8171C29.1179 38.8171 27.1197 36.1717 24.3227 38.9706C24.3227 38.9706 20.8619 44.0725 15.4258 42.772L33.991 50.6298L34.0885 50.7181L32.8374 53.6679C32.6662 53.9377 32.5201 54.2227 32.4009 54.5193C31.5246 56.732 33.1797 58.9331 34.7445 59.5528C36.3092 60.1726 38.2882 58.8811 39.1646 56.6683C40.029 54.4857 39.1842 51.7129 37.6594 51.0429Z" fill="#3F3D56"/>
<path d="M47.6245 95.3564C40.8851 91.5032 42.2337 83.0476 42.2337 83.0476C42.0642 77.5544 37.5257 78.332 37.5257 78.332L35.874 78.7089C35.1067 78.3528 34.2618 78.1965 33.4179 78.2546L30.9052 78.6775C36.6266 80.0218 36.1565 84.8079 36.1565 84.8079L36.9581 90.4041L21.9666 84.3564L23.6878 80.2979C23.9257 79.9231 24.1287 79.5273 24.2941 79.1154C25.5114 76.042 23.2124 72.985 21.0392 72.1243C18.8659 71.2636 16.1173 73.0572 14.9001 76.1306C13.6995 79.162 14.8728 83.0132 16.9906 83.9437L16.9889 83.9473L21.4986 85.8254L21.5322 85.7191L47.6245 95.3564ZM40.0116 85.5236L40.494 90.8987C37.6634 87.1412 38.242 82.677 38.242 82.677C38.2021 81.6403 37.8524 80.6394 37.238 79.8034C40.4895 81.7492 40.0116 85.5236 40.0116 85.5236H40.0116Z" fill="#3F3D56"/>
<defs>
<linearGradient id="paint0_linear" x1="58.1216" y1="256.583" x2="69.2982" y2="256.583" gradientUnits="userSpaceOnUse">
<stop stop-color="#F15A24"/>
<stop offset="1" stop-color="#F68F1F"/>
<stop offset="1" stop-color="#F68F1F"/>
</linearGradient>
<linearGradient id="paint1_linear" x1="245.36" y1="258.565" x2="256.537" y2="258.565" gradientUnits="userSpaceOnUse">
<stop stop-color="#F15A24"/>
<stop offset="1" stop-color="#F68F1F"/>
<stop offset="1" stop-color="#F68F1F"/>
</linearGradient>
<linearGradient id="paint2_linear" x1="272.734" y1="260.55" x2="283.911" y2="260.55" gradientUnits="userSpaceOnUse">
<stop stop-color="#F15A24"/>
<stop offset="1" stop-color="#F68F1F"/>
<stop offset="1" stop-color="#F68F1F"/>
</linearGradient>
<linearGradient id="paint3_linear" x1="102.951" y1="251.028" x2="114.127" y2="251.028" gradientUnits="userSpaceOnUse">
<stop stop-color="#F15A24"/>
<stop offset="1" stop-color="#F68F1F"/>
<stop offset="1" stop-color="#F68F1F"/>
</linearGradient>
<linearGradient id="paint4_linear" x1="18.4536" y1="253.011" x2="29.6303" y2="253.011" gradientUnits="userSpaceOnUse">
<stop stop-color="#F15A24"/>
<stop offset="1" stop-color="#F68F1F"/>
<stop offset="1" stop-color="#F68F1F"/>
</linearGradient>
<linearGradient id="paint5_linear" x1="106.672" y1="188.325" x2="88.7644" y2="188.325" gradientUnits="userSpaceOnUse">
<stop stop-color="#F15A24"/>
<stop offset="1" stop-color="#F68F1F"/>
<stop offset="1" stop-color="#F68F1F"/>
</linearGradient>
<linearGradient id="paint6_linear" x1="222.959" y1="188.325" x2="240.866" y2="188.325" gradientUnits="userSpaceOnUse">
<stop stop-color="#F15A24"/>
<stop offset="1" stop-color="#F68F1F"/>
<stop offset="1" stop-color="#F68F1F"/>
</linearGradient>
</defs>
</svg>
