<svg width="246" height="246" viewBox="0 0 246 246" fill="none" xmlns="http://www.w3.org/2000/svg">
<defs>
<linearGradient id="paint0_linear" x1="42" y1="139.738" x2="198.482" y2="139.738" gradientUnits="userSpaceOnUse">
<stop stop-color="#205EFF"/>
<stop offset="1" stop-color="#00C9FF"/>
</linearGradient>
<linearGradient id="paint1_linear" x1="46.7422" y1="106.56" x2="203.164" y2="106.56" gradientUnits="userSpaceOnUse">
<stop stop-color="#F15A24"/>
<stop offset="1" stop-color="#F7931E"/>
</linearGradient>
</defs>
<rect width="245.39" height="245.39" rx="80" fill="white"/>
<path d="M157.881 175.325H42L57.73 136.859C65.6219 117.572 84.8941 104.194 104.78 104.194H167.603C190.945 104.194 204.845 126.523 195.596 149.154C189.255 164.588 173.826 175.325 157.881 175.325Z" fill="url(#paint0_linear)"/>
<path d="M162.589 142.131H46.7422L62.4769 103.659C70.3658 84.3688 89.6198 71 109.509 71H172.362C195.695 71 209.578 93.3211 200.344 115.967C193.951 131.414 178.518 142.131 162.589 142.131Z" fill="url(#paint1_linear)"/>
</svg>
