<svg width="34" height="34" viewBox="0 0 34 34" fill="none" xmlns="http://www.w3.org/2000/svg">
<path d="M18.0072 18.7001L14.0963 22.5931C13.9369 22.7511 13.8104 22.9391 13.7241 23.1463C13.6378 23.3534 13.5933 23.5756 13.5933 23.8001C13.5933 24.0245 13.6378 24.2467 13.7241 24.4538C13.8104 24.661 13.9369 24.849 14.0963 25.007C14.2544 25.1664 14.4424 25.2929 14.6497 25.3792C14.8569 25.4655 15.0791 25.5099 15.3036 25.5099C15.5281 25.5099 15.7503 25.4655 15.9575 25.3792C16.1647 25.2929 16.3528 25.1664 16.5109 25.007L23.3125 18.2071C23.4673 18.0454 23.5886 17.8548 23.6696 17.6461C23.8396 17.2322 23.8396 16.768 23.6696 16.3541C23.5886 16.1454 23.4673 15.9548 23.3125 15.7931L16.5109 8.99312C16.3523 8.83462 16.1641 8.70889 15.957 8.62311C15.7498 8.53732 15.5278 8.49317 15.3036 8.49317C15.0794 8.49317 14.8574 8.53732 14.6502 8.62311C14.4431 8.70889 14.2549 8.83462 14.0963 8.99312C13.9378 9.15163 13.812 9.3398 13.7262 9.5469C13.6404 9.75399 13.5962 9.97596 13.5962 10.2001C13.5962 10.4243 13.6404 10.6462 13.7262 10.8533C13.812 11.0604 13.9378 11.2486 14.0963 11.4071L18.0072 15.3001H1.7004C1.24943 15.3001 0.816922 15.4792 0.498035 15.798C0.179149 16.1168 0 16.5492 0 17.0001C0 17.451 0.179149 17.8834 0.498035 18.2022C0.816922 18.521 1.24943 18.7001 1.7004 18.7001H18.0072ZM17.004 0.000169478C13.8261 -0.0140149 10.7078 0.862427 8.00287 2.53008C5.29792 4.19774 3.11454 6.58986 1.7004 9.43512C1.49746 9.8409 1.46407 10.3107 1.60757 10.7411C1.75107 11.1714 2.0597 11.5272 2.46558 11.7301C2.87146 11.933 3.34132 11.9664 3.77182 11.8229C4.20232 11.6795 4.55818 11.3709 4.76112 10.9651C5.83609 8.79477 7.47127 6.95079 9.49766 5.62372C11.5241 4.29665 13.8682 3.53465 16.2877 3.41646C18.7073 3.29827 21.1145 3.82817 23.2606 4.95141C25.4068 6.07465 27.214 7.75048 28.4955 9.80571C29.777 11.8609 30.4863 14.221 30.55 16.642C30.6138 19.0631 30.0298 21.4572 28.8583 23.577C27.6869 25.6969 25.9704 27.4655 23.8864 28.7001C21.8024 29.9348 19.4264 30.5907 17.004 30.6C14.4685 30.611 11.9813 29.907 9.82778 28.5689C7.67429 27.2309 5.9418 25.3129 4.82913 23.0351C4.6262 22.6293 4.27034 22.3207 3.83984 22.1772C3.40934 22.0338 2.93947 22.0672 2.53359 22.2701C2.12772 22.4729 1.81908 22.8287 1.67558 23.2591C1.53208 23.6895 1.56548 24.1593 1.76841 24.565C3.11654 27.2774 5.165 29.5804 7.70191 31.2359C10.2388 32.8914 13.1721 33.8392 16.1982 33.9813C19.2244 34.1234 22.2335 33.4546 24.9145 32.0442C27.5954 30.6337 29.8508 28.5328 31.4473 25.9587C33.0438 23.3847 33.9234 20.4309 33.9952 17.403C34.067 14.3751 33.3284 11.383 31.8557 8.73614C30.383 6.08932 28.2298 3.88391 25.6187 2.34804C23.0076 0.812162 20.0335 0.00159144 17.004 0.000169478Z" fill="#CA0000"/>
</svg>
