<svg width="21" height="21" viewBox="0 0 21 21" fill="none" xmlns="http://www.w3.org/2000/svg">
<path d="M13.83 9.92713C14.2018 9.55469 14.4965 9.11227 14.6973 8.62529C14.8981 8.1383 15.001 7.61634 15 7.08937C15 5.97633 14.55 4.97359 13.83 4.25162L15.24 2.83776C15.7982 3.39524 16.241 4.05783 16.5431 4.78747C16.8451 5.5171 17.0004 6.29938 17 7.08937C17 8.7439 16.33 10.248 15.24 11.341L13.83 9.92713ZM13 7.08937C13 6.55749 12.7893 6.04739 12.4142 5.67129C12.0391 5.29519 11.5304 5.08389 11 5.08389C10.4 5.08389 9.87 5.35463 9.5 5.76576L12.32 8.59348C12.73 8.22247 13 7.69102 13 7.08937ZM16.66 12.7649L18.07 14.1787C19 13.2489 19.7376 12.1439 20.2405 10.9272C20.7433 9.7106 21.0014 8.40634 21 7.08937C21 4.32181 19.88 1.81496 18.07 0L16.66 1.41386C17.4047 2.15791 17.9949 3.04259 18.3965 4.01675C18.7982 4.99092 19.0033 6.03525 19 7.08937C19 9.31546 18.11 11.3209 16.66 12.7649ZM21 17.2973V16.114H19.82L21 17.2973ZM19.27 18.1195L20 18.8515L18.73 20.125L16.73 18.1195H14C14 18.3855 13.8946 18.6405 13.7071 18.8286C13.5196 19.0166 13.2652 19.1223 13 19.1223H9C8.73478 19.1223 8.48043 19.0166 8.29289 18.8286C8.10535 18.6405 8 18.3855 8 18.1195H1V16.114H8C8 15.8481 8.10535 15.593 8.29289 15.405C8.48043 15.2169 8.73478 15.1113 9 15.1113H10V11.3711L7.34 8.70379C7.54 9.16505 7.82 9.59622 8.17 9.92713L6.76 11.341C6.2018 10.7835 5.75896 10.1209 5.45692 9.39128C5.15488 8.66165 4.9996 7.87937 5 7.08937C5 6.85874 5 6.62811 5.04 6.39748L3.37 4.72291C3.14 5.47496 3 6.26713 3 7.08937C3 9.31546 3.89 11.3209 5.34 12.7649L3.93 14.1787C2.51731 12.7656 1.56006 10.9599 1.18211 8.99518C0.804151 7.0305 1.02288 4.99729 1.81 3.15863L0 1.34367L1.28 0.0701918L2.7 1.49408L4.15 2.94806L5.63 4.43211L7.17 5.98636L9.28 8.09211L10 8.80406L17.27 16.114H17.28L19.28 18.1195H19.27ZM14.73 16.114L12 13.3766V15.1113H13C13.2652 15.1113 13.5196 15.2169 13.7071 15.405C13.8946 15.593 14 15.8481 14 16.114H14.73Z" fill="black"/>
</svg>
