<svg width="24" height="29" viewBox="0 0 24 29" fill="none" xmlns="http://www.w3.org/2000/svg">
<path d="M12 0L0 5.27273V13.1818C0 20.4977 5.12 27.3391 12 29C18.88 27.3391 24 20.4977 24 13.1818V5.27273L12 0ZM12 5.14091C12.7911 5.14091 13.5645 5.37284 14.2223 5.80737C14.8801 6.2419 15.3928 6.85952 15.6955 7.58212C15.9983 8.30471 16.0775 9.09984 15.9231 9.86695C15.7688 10.6341 15.3878 11.3387 14.8284 11.8917C14.269 12.4448 13.5563 12.8214 12.7804 12.974C12.0044 13.1266 11.2002 13.0483 10.4693 12.749C9.73836 12.4497 9.11365 11.9428 8.67412 11.2925C8.2346 10.6422 8 9.87759 8 9.09546C8 8.04664 8.42143 7.04079 9.17157 6.29917C9.92172 5.55755 10.9391 5.14091 12 5.14091ZM12 15.5545C14.6667 15.5545 20 16.9914 20 19.6145C19.1243 20.9197 17.9355 21.9903 16.5396 22.7309C15.1438 23.4716 13.5842 23.8592 12 23.8592C10.4158 23.8592 8.85624 23.4716 7.46036 22.7309C6.06449 21.9903 4.8757 20.9197 4 19.6145C4 16.9914 9.33333 15.5545 12 15.5545Z" fill="black"/>
</svg>
