<svg width="40" height="34" viewBox="0 0 40 34" fill="none" xmlns="http://www.w3.org/2000/svg">
<path d="M39.3092 7.35425L25.9759 0.16193C25.779 0.0557017 25.5579 0 25.3332 0C25.1085 0 24.8874 0.0557017 24.6905 0.16193L11.3572 7.35425C11.1481 7.46714 10.9738 7.63299 10.8524 7.83448C10.731 8.03598 10.6669 8.26574 10.6669 8.49979C10.6669 8.73385 10.731 8.96361 10.8524 9.16511C10.9738 9.3666 11.1481 9.53245 11.3572 9.64534L23.9999 16.465V30.4822L19.9519 28.2983L18.6665 30.5881L24.6905 33.8377C24.8874 33.9442 25.1085 34 25.3332 34C25.558 34 25.7791 33.9442 25.9759 33.8377L39.3092 26.6454C39.5184 26.5325 39.6928 26.3667 39.8143 26.1652C39.9358 25.9637 39.9999 25.7339 39.9999 25.4998V8.49979C39.9999 8.2657 39.9358 8.03591 39.8143 7.83441C39.6928 7.63291 39.5184 7.46709 39.3092 7.35425ZM25.3332 2.80086L35.8999 8.49979L25.3332 14.1987L14.7665 8.49979L25.3332 2.80086ZM37.3332 24.727L26.6665 30.4808V16.4637L37.3332 10.7098V24.727Z" fill="#9A9A9A"/>
<line x1="0.75" y1="16.25" x2="16.5834" y2="16.25" stroke="#9A9A9A" stroke-width="1.5" stroke-linecap="round"/>
<line x1="7.41669" y1="20.1731" x2="12.5834" y2="20.1731" stroke="#9A9A9A" stroke-width="1.5" stroke-linecap="round"/>
<line x1="7.41669" y1="24.0962" x2="16.5834" y2="24.0962" stroke="#9A9A9A" stroke-width="1.5" stroke-linecap="round"/>
</svg>
