<svg width="23" height="23" viewBox="0 0 23 23" fill="none" xmlns="http://www.w3.org/2000/svg">
<path d="M11.5 22C17.299 22 22 17.299 22 11.5C22 5.70101 17.299 1 11.5 1C5.70101 1 1 5.70101 1 11.5C1 17.299 5.70101 22 11.5 22Z" stroke="#9A9A9A" stroke-linecap="round" stroke-linejoin="round"/>
<path d="M11.5 16.75C14.3995 16.75 16.75 14.3995 16.75 11.5C16.75 8.6005 14.3995 6.25 11.5 6.25C8.6005 6.25 6.25 8.6005 6.25 11.5C6.25 14.3995 8.6005 16.75 11.5 16.75Z" stroke="#9A9A9A" stroke-linecap="round" stroke-linejoin="round"/>
<path d="M15.4375 7.5625L18.7188 4.28125" stroke="#9A9A9A" stroke-linecap="round" stroke-linejoin="round"/>
<path d="M15.4375 15.4375L18.7188 18.7187" stroke="#9A9A9A" stroke-linecap="round" stroke-linejoin="round"/>
<path d="M7.5625 15.4375L4.28125 18.7187" stroke="#9A9A9A" stroke-linecap="round" stroke-linejoin="round"/>
<path d="M7.5625 7.5625L4.28125 4.28125" stroke="#9A9A9A" stroke-linecap="round" stroke-linejoin="round"/>
</svg>
