<svg width="29" height="29" viewBox="0 0 29 29" fill="none" xmlns="http://www.w3.org/2000/svg">
<path d="M2.71875 1.8125C2.4784 1.8125 2.24789 1.90798 2.07793 2.07793C1.90798 2.24789 1.8125 2.4784 1.8125 2.71875V8.15625C1.8125 8.3966 1.71702 8.62711 1.54707 8.79707C1.37711 8.96702 1.1466 9.0625 0.90625 9.0625C0.665898 9.0625 0.435389 8.96702 0.265435 8.79707C0.0954797 8.62711 0 8.3966 0 8.15625V2.71875C0 1.99769 0.286439 1.30617 0.796303 0.796303C1.30617 0.286439 1.99769 0 2.71875 0L8.15625 0C8.3966 0 8.62711 0.0954797 8.79707 0.265435C8.96702 0.435389 9.0625 0.665898 9.0625 0.90625C9.0625 1.1466 8.96702 1.37711 8.79707 1.54707C8.62711 1.71702 8.3966 1.8125 8.15625 1.8125H2.71875ZM19.9375 0.90625C19.9375 0.665898 20.033 0.435389 20.2029 0.265435C20.3729 0.0954797 20.6034 0 20.8438 0L26.2812 0C27.0023 0 27.6938 0.286439 28.2037 0.796303C28.7136 1.30617 29 1.99769 29 2.71875V8.15625C29 8.3966 28.9045 8.62711 28.7346 8.79707C28.5646 8.96702 28.3341 9.0625 28.0938 9.0625C27.8534 9.0625 27.6229 8.96702 27.4529 8.79707C27.283 8.62711 27.1875 8.3966 27.1875 8.15625V2.71875C27.1875 2.4784 27.092 2.24789 26.9221 2.07793C26.7521 1.90798 26.5216 1.8125 26.2812 1.8125H20.8438C20.6034 1.8125 20.3729 1.71702 20.2029 1.54707C20.033 1.37711 19.9375 1.1466 19.9375 0.90625ZM0.90625 19.9375C1.1466 19.9375 1.37711 20.033 1.54707 20.2029C1.71702 20.3729 1.8125 20.6034 1.8125 20.8438V26.2812C1.8125 26.5216 1.90798 26.7521 2.07793 26.9221C2.24789 27.092 2.4784 27.1875 2.71875 27.1875H8.15625C8.3966 27.1875 8.62711 27.283 8.79707 27.4529C8.96702 27.6229 9.0625 27.8534 9.0625 28.0938C9.0625 28.3341 8.96702 28.5646 8.79707 28.7346C8.62711 28.9045 8.3966 29 8.15625 29H2.71875C1.99769 29 1.30617 28.7136 0.796303 28.2037C0.286439 27.6938 0 27.0023 0 26.2812L0 20.8438C0 20.6034 0.0954797 20.3729 0.265435 20.2029C0.435389 20.033 0.665898 19.9375 0.90625 19.9375ZM28.0938 19.9375C28.3341 19.9375 28.5646 20.033 28.7346 20.2029C28.9045 20.3729 29 20.6034 29 20.8438V26.2812C29 27.0023 28.7136 27.6938 28.2037 28.2037C27.6938 28.7136 27.0023 29 26.2812 29H20.8438C20.6034 29 20.3729 28.9045 20.2029 28.7346C20.033 28.5646 19.9375 28.3341 19.9375 28.0938C19.9375 27.8534 20.033 27.6229 20.2029 27.4529C20.3729 27.283 20.6034 27.1875 20.8438 27.1875H26.2812C26.5216 27.1875 26.7521 27.092 26.9221 26.9221C27.092 26.7521 27.1875 26.5216 27.1875 26.2812V20.8438C27.1875 20.6034 27.283 20.3729 27.4529 20.2029C27.6229 20.033 27.8534 19.9375 28.0938 19.9375Z" fill="#252525"/>
<path d="M5.4375 25.375C5.4375 25.375 3.625 25.375 3.625 23.5625C3.625 21.75 5.4375 16.3125 14.5 16.3125C23.5625 16.3125 25.375 21.75 25.375 23.5625C25.375 25.375 23.5625 25.375 23.5625 25.375H5.4375ZM19.9375 9.0625C19.9375 10.5046 19.3646 11.8877 18.3449 12.9074C17.3252 13.9271 15.9421 14.5 14.5 14.5C13.0579 14.5 11.6748 13.9271 10.6551 12.9074C9.63538 11.8877 9.0625 10.5046 9.0625 9.0625C9.0625 7.62039 9.63538 6.23734 10.6551 5.21761C11.6748 4.19788 13.0579 3.625 14.5 3.625C15.9421 3.625 17.3252 4.19788 18.3449 5.21761C19.3646 6.23734 19.9375 7.62039 19.9375 9.0625Z" fill="#252525"/>
</svg>
